<?xml version="1.0" encoding="UTF-8" standalone="no"?>
<svg width="26px" height="25px" viewBox="0 0 26 25" version="1.1" xmlns="http://www.w3.org/2000/svg" xmlns:xlink="http://www.w3.org/1999/xlink" xmlns:sketch="http://www.bohemiancoding.com/sketch/ns">
    <!-- Generator: Sketch 3.3.2 (12043) - http://www.bohemiancoding.com/sketch -->
    <title>Imported Layers</title>
    <desc>Created with Sketch.</desc>
    <defs></defs>
    <g id="Page-1" stroke="none" stroke-width="1" fill="none" fill-rule="evenodd" sketch:type="MSPage">
        <g id="no-sct-products-support-addons-grid@2x" sketch:type="MSArtboardGroup" transform="translate(-329.000000, -2423.000000)" fill="#1A1919">
            <g id="ADD-ON'S-&amp;-ACCESSORIES" sketch:type="MSLayerGroup" transform="translate(299.000000, 1700.000000)">
                <g id="Kits" transform="translate(0.000000, 236.000000)" sketch:type="MSShapeGroup">
                    <g id="Clothing-&amp;-swag">
                        <g id="Group" transform="translate(30.000000, 487.000000)">
                            <path d="M25.8976836,9.16953458 C25.8272757,8.8456085 25.5169723,8.64817833 25.1784209,8.64817833 L16.5589756,8.64817833 L13.7379119,0.521356248 C13.61508,0.167658954 13.3710702,0 12.990062,0 C12.6093508,0 12.3511746,0.167658954 12.228385,0.521356248 L9.40698209,8.64817833 L0.787876058,8.64817833 C0.406867901,8.64817833 0.16701472,8.81736184 0.0400261392,9.16953458 C-0.0587144807,9.54965753 0.024969043,9.83271701 0.294003301,10.0427248 L7.20648291,15.4372861 L4.6953834,23.705045 C4.58523332,24.0680167 4.6953834,24.3669993 4.97765094,24.5782352 C5.28791195,24.7615209 5.61297557,24.7840505 5.90847638,24.5782352 L12.990062,19.6485368 L20.0574813,24.5782352 C20.2082643,24.6833873 20.3680392,24.7191297 20.5230637,24.7191297 C20.9603557,24.7191297 21.2989071,24.3811015 21.2989071,23.9444852 C21.2989071,23.8741862 21.289279,23.7741583 21.2426232,23.6206015 L18.7598141,15.4372861 L25.6719968,10.0427248 C25.9500229,9.8257718 26.0246721,9.53551303 25.8976836,9.16953458" id="Imported-Layers"></path>
                        </g>
                    </g>
                </g>
            </g>
        </g>
    </g>
</svg>