<?xml version="1.0" encoding="UTF-8" standalone="no"?>
<svg width="127px" height="80px" viewBox="0 0 127 80" version="1.1" xmlns="http://www.w3.org/2000/svg" xmlns:xlink="http://www.w3.org/1999/xlink" xmlns:sketch="http://www.bohemiancoding.com/sketch/ns">
    <!-- Generator: Sketch 3.3.2 (12043) - http://www.bohemiancoding.com/sketch -->
    <title>Amex</title>
    <desc>Created with Sketch.</desc>
    <defs></defs>
    <g id="Page-1" stroke="none" stroke-width="1" fill="none" fill-rule="evenodd" sketch:type="MSPage">
        <g id="cart@2x" sketch:type="MSArtboardGroup" transform="translate(-1943.000000, -1463.000000)">
            <g id="ACCEPTED-PAYMENT-MET-+-Cards" sketch:type="MSLayerGroup" transform="translate(1650.000000, 1352.000000)">
                <g id="Cards" transform="translate(0.000000, 111.000000)" sketch:type="MSShapeGroup">
                    <g id="Amex" transform="translate(293.000000, 0.000000)">
                        <path d="M126.044,75.18 C126.044,77.488 124.171,79.359 121.863,79.359 L4.794,79.359 C2.486,79.359 0.612,77.488 0.612,75.18 L0.612,5.146 C0.612,2.838 2.486,0.967 4.794,0.967 L121.863,0.967 C124.171,0.967 126.044,2.838 126.044,5.146 L126.044,75.18" id="Fill-119" fill="#FFFFFF"></path>
                        <path d="M39.529,38.338 L39.529,37.084 L38.929,38.338 L33.736,38.338 L33.085,36.992 L33.085,38.338 L23.378,38.338 L22.23,35.623 L20.287,35.623 L19.073,38.338 L14.036,38.338 L14.036,30.143 L17.728,21.795 L24.792,21.795 L25.784,24.16 L25.784,21.813 L34.425,21.813 L36.324,25.795 L38.182,21.795 L65.457,21.795 C65.457,21.795 66.887,21.775 67.826,22.438 L67.823,21.795 L74.693,21.795 L74.693,22.699 C74.693,22.699 75.928,21.795 77.755,21.795 L89.879,21.795 L90.945,24.195 L90.945,21.795 L98.714,21.795 L100.124,24.195 L100.124,21.795 L107.552,21.795 L107.552,38.354 L99.921,38.354 L98.128,35.467 L98.128,38.338 L88.645,38.338 L87.31,35.381 L85.452,35.381 L84.198,38.338 L78.46,38.338 C78.46,38.338 76.32,38.31 74.714,37.162 L74.714,38.338 L63.286,38.338 L63.286,34.475 C63.286,33.914 62.855,33.953 62.855,33.953 L62.439,33.953 L62.439,38.338 L39.529,38.338" id="Fill-120" fill="#FFFFFF"></path>
                        <path d="M33.828,41.924 L48.845,41.924 L51.01,44.377 L53.227,41.924 L64.772,41.924 C64.772,41.924 65.857,41.951 66.887,42.5 L66.887,41.924 L77.167,41.924 C78.472,41.924 79.569,42.576 79.569,42.576 L79.569,41.924 L92.784,41.924 L92.784,42.525 C92.784,42.525 93.723,41.924 94.989,41.924 L103.599,41.924 L103.599,42.525 C103.599,42.525 104.683,41.924 105.83,41.924 L112.587,41.924 L112.587,57.527 C112.587,57.527 111.701,58.533 109.861,58.533 L100.95,58.533 L100.95,58.037 C100.95,58.037 100.103,58.533 98.81,58.533 L75.137,58.533 L75.137,54.5 C75.137,54.104 74.963,54.031 74.61,54.031 L74.284,54.031 L74.284,58.533 L66.887,58.533 L66.887,54.059 C66.887,54.059 66.065,54.5 64.696,54.5 L62.034,54.5 L62.034,58.533 L52.915,58.533 L50.839,56.002 L48.623,58.533 L33.828,58.533 L33.828,41.924" id="Fill-121" fill="#FFFFFF"></path>
                        <path d="M81.154,44.414 L90.577,44.414 L90.577,46.941 L84.039,46.941 L84.039,49.144 L90.395,49.144 L90.395,51.371 L84.039,51.371 L84.039,53.69 L90.577,53.69 L90.577,56.154 L81.154,56.154 L81.154,44.414" id="Fill-122" fill="#006E95"></path>
                        <path d="M108.782,48.988 C112.325,49.17 112.62,50.94 112.62,52.826 C112.62,55.025 110.811,56.207 108.925,56.207 L102.871,56.207 L102.871,53.69 L107.588,53.69 C108.388,53.69 109.579,53.69 109.579,52.563 C109.579,52.027 109.371,51.686 108.518,51.596 C108.14,51.541 106.738,51.463 106.527,51.459 C103.327,51.375 102.581,49.783 102.581,47.846 C102.581,45.645 104.129,44.441 106.017,44.441 L112.071,44.441 L112.071,46.957 L107.64,46.957 C106.633,46.967 105.545,46.838 105.545,47.977 C105.545,48.697 106.081,48.842 106.763,48.908 C107,48.908 108.57,48.99 108.782,48.988" id="Fill-123" fill="#006E95"></path>
                        <path d="M97.93,48.988 C101.473,49.17 101.769,50.94 101.769,52.826 C101.769,55.025 99.961,56.207 98.073,56.207 L92.02,56.207 L92.02,53.69 L96.737,53.69 C97.537,53.69 98.73,53.69 98.73,52.563 C98.73,52.027 98.519,51.686 97.668,51.596 C97.288,51.541 95.886,51.463 95.676,51.459 C92.476,51.375 91.732,49.783 91.732,47.846 C91.732,45.645 93.278,44.441 95.165,44.441 L101.219,44.441 L101.219,46.957 L96.79,46.957 C95.781,46.967 94.693,46.838 94.693,47.977 C94.693,48.697 95.23,48.842 95.913,48.908 C96.147,48.908 97.721,48.99 97.93,48.988" id="Fill-124" fill="#006E95"></path>
                        <path d="M63.753,44.44 L53.637,44.44 L50.335,48.082 L47.139,44.414 L35.778,44.414 L35.778,56.154 L46.773,56.154 L50.231,52.275 L53.612,56.182 L59.142,56.182 L59.142,52.195 L63.02,52.195 C64.514,52.195 67.239,52.144 67.239,48.029 C67.239,45.094 65.169,44.44 63.753,44.44 L63.753,44.44 Z M45.265,53.69 L38.621,53.69 L38.621,51.371 L44.977,51.371 L44.977,49.144 L38.621,49.144 L38.621,46.941 L45.631,46.957 L48.437,50.152 L45.265,53.69 L45.265,53.69 Z M56.285,55.053 L52.144,50.152 L56.285,45.566 L56.285,55.053 L56.285,55.053 Z M62.784,49.777 L59.193,49.777 L59.193,46.959 L62.794,46.959 C64,46.959 64.381,47.732 64.381,48.309 C64.381,49.096 63.962,49.777 62.784,49.777 L62.784,49.777 Z" id="Fill-125" fill="#006E95"></path>
                        <path d="M77.676,50.834 C79.249,50.049 79.669,49 79.669,47.584 C79.669,45.07 77.625,44.441 76.209,44.441 L68.716,44.441 L68.716,56.182 L71.598,56.182 L71.598,52.039 L75.372,52.039 C76.367,52.039 76.76,53.035 76.786,54.031 L76.864,56.182 L79.669,56.182 L79.564,53.769 C79.564,51.881 79.041,50.99 77.676,50.834 L77.676,50.834 Z M75.187,49.619 L71.598,49.619 L71.598,46.959 L75.2,46.959 C76.406,46.959 76.786,47.732 76.786,48.309 C76.786,49.094 76.367,49.619 75.187,49.619 L75.187,49.619 Z" id="Fill-126" fill="#006E95"></path>
                        <path d="M69.87,24.146 L72.753,24.146 L72.753,35.9 L69.87,35.9 L69.87,24.146 Z" id="Fill-127" fill="#006E95"></path>
                        <path d="M46.274,24.16 L55.694,24.16 L55.694,26.688 L49.158,26.688 L49.158,28.891 L55.511,28.891 L55.511,31.117 L49.158,31.117 L49.158,33.435 L55.694,33.435 L55.694,35.9 L46.274,35.9 L46.274,24.16" id="Fill-128" fill="#006E95"></path>
                        <path d="M66.368,30.553 C67.942,29.769 68.361,28.719 68.361,27.303 C68.361,24.787 66.317,24.16 64.899,24.16 L57.406,24.16 L57.406,35.9 L60.289,35.9 L60.289,31.76 L64.061,31.76 C65.059,31.76 65.451,32.754 65.477,33.75 L65.557,35.9 L68.361,35.9 L68.256,33.488 C68.256,31.602 67.731,30.711 66.368,30.553 L66.368,30.553 Z M63.879,29.338 L60.289,29.338 L60.289,26.678 L63.892,26.678 C65.097,26.678 65.477,27.451 65.477,28.027 C65.477,28.815 65.059,29.338 63.879,29.338 L63.879,29.338 Z" id="Fill-129" fill="#006E95"></path>
                        <path d="M39.626,24.16 L36.089,32.035 L32.564,24.16 L28.044,24.16 L28.044,35.467 L23.012,24.16 L19.198,24.16 L14.061,35.9 L17.103,35.9 L18.227,33.279 L23.981,33.279 L25.122,35.9 L30.926,35.9 L30.926,27.185 L34.777,35.9 L37.399,35.9 L41.343,27.33 L41.343,35.9 L44.226,35.9 L44.226,24.16 L39.626,24.16 L39.626,24.16 Z M19.316,30.746 L21.036,26.643 L22.827,30.746 L19.316,30.746 L19.316,30.746 Z" id="Fill-130" fill="#006E95"></path>
                        <path d="M102.498,24.154 L102.498,32.283 L97.638,24.154 L93.378,24.154 L93.378,35.18 L88.466,24.16 L84.651,24.16 L80.681,33.254 C80.681,33.254 79.003,33.254 78.835,33.213 C78.138,33.07 77.053,32.58 77.04,30.51 L77.04,29.658 C77.04,26.906 78.535,26.705 80.45,26.705 L82.23,26.705 L82.23,24.154 L78.466,24.154 C77.155,24.154 74.305,25.154 74.209,29.977 C74.143,33.227 75.558,35.906 78.754,35.906 L82.555,35.906 L83.681,33.285 L89.434,33.285 L90.573,35.906 L96.26,35.906 L96.26,27.309 L101.448,35.906 L105.379,35.906 L105.379,24.154 L102.498,24.154 L102.498,24.154 Z M84.793,30.752 L86.509,26.648 L88.317,30.752 L84.793,30.752 L84.793,30.752 Z" id="Fill-131" fill="#006E95"></path>
                    </g>
                </g>
            </g>
        </g>
    </g>
</svg>