<?xml version="1.0" encoding="UTF-8" standalone="no"?>
<svg width="76px" height="48px" viewBox="0 0 76 48" version="1.1" xmlns="http://www.w3.org/2000/svg" xmlns:xlink="http://www.w3.org/1999/xlink" xmlns:sketch="http://www.bohemiancoding.com/sketch/ns">
    <!-- Generator: Sketch 3.3.2 (12043) - http://www.bohemiancoding.com/sketch -->
    <title>Shape</title>
    <desc>Created with Sketch.</desc>
    <defs></defs>
    <g id="Page-1" stroke="none" stroke-width="1" fill="none" fill-rule="evenodd" sketch:type="MSPage">
        <g id="Products-Filter-Overlay@2x" sketch:type="MSArtboardGroup" transform="translate(-100.000000, -100.000000)" fill="#FFFFFF" opacity="0.8">
            <path d="M172.709993,120.286477 L111.231928,120.286477 L125.901491,105.615964 C127.186638,104.331577 127.186638,102.248058 125.901491,100.96386 C124.616344,99.6787132 122.532825,99.6787132 121.249578,100.96386 L100.96386,121.249958 C99.6787132,122.534345 99.6787132,124.618054 100.96386,125.902061 L121.249578,146.189108 C121.891961,146.831872 122.733843,147.152778 123.575534,147.152778 C124.417226,147.152778 125.259107,146.831872 125.901491,146.189108 C127.186638,144.904721 127.186638,142.821202 125.901491,141.537195 L111.231928,126.865921 L172.709993,126.865921 C174.526755,126.865921 176,125.392866 176,123.576104 C176,121.759342 174.526945,120.286477 172.709993,120.286477 L172.709993,120.286477 Z" id="Shape" sketch:type="MSShapeGroup"></path>
        </g>
    </g>
</svg>