<?xml version="1.0" encoding="utf-8"?>
<!-- Generator: Adobe Illustrator 18.0.0, SVG Export Plug-In . SVG Version: 6.00 Build 0)  -->
<!DOCTYPE svg PUBLIC "-//W3C//DTD SVG 1.1//EN" "http://www.w3.org/Graphics/SVG/1.1/DTD/svg11.dtd">
<svg version="1.1" id="Capa_1" xmlns="http://www.w3.org/2000/svg" xmlns:xlink="http://www.w3.org/1999/xlink" x="0px" y="0px"
	 viewBox="0 0 500 500" enable-background="new 0 0 500 500" xml:space="preserve">
<g>
	<path fill="#424242" d="M294.5,250.3L496.8,47.9c4.2-4.2,4.2-11.6,0-15.8l-29-29C465.8,1.1,463.1,0,460,0c-3.2,0-5.8,1.1-7.9,3.2
		L250.3,205.5L47.9,3.2c-4.2-4.2-11.6-4.2-15.8,0l-29,29c-4.2,4.2-4.2,11.6,0,15.8l202.3,202.3L3.2,452.1c-4.2,4.2-4.2,11.6,0,15.8
		l29,29c2.1,2.1,4.7,3.2,7.9,3.2c3.2,0,5.8-1.1,7.9-3.2l202.3-202.3l202.3,202.3c2.1,2.1,4.7,3.2,7.9,3.2c3.2,0,5.8-1.1,7.9-3.2
		l29-29c4.2-4.2,4.2-11.6,0-15.8L294.5,250.3z"/>
</g>
</svg>
