<?xml version="1.0" encoding="utf-8"?>
<!-- Generator: Adobe Illustrator 16.0.0, SVG Export Plug-In . SVG Version: 6.00 Build 0)  -->
<!DOCTYPE svg PUBLIC "-//W3C//DTD SVG 1.1//EN" "http://www.w3.org/Graphics/SVG/1.1/DTD/svg11.dtd">
<svg version="1.1" id="Capa_1" xmlns="http://www.w3.org/2000/svg" xmlns:xlink="http://www.w3.org/1999/xlink" x="0px" y="0px"
	 width="300px" height="300px" viewBox="0 0 300 300" enable-background="new 0 0 300 300" xml:space="preserve">
<g>
	<path fill="#D4332C" stroke="#D4332C" stroke-miterlimit="10" d="M176.713,150.158L298.104,28.767c2.529-2.529,2.529-6.955,0-9.484
		L280.717,1.896C279.452,0.632,277.871,0,275.975,0s-3.477,0.632-4.742,1.896L150.158,123.288L28.767,1.896
		c-2.529-2.529-6.955-2.529-9.483,0L1.896,19.283c-2.529,2.529-2.529,6.955,0,9.484l121.391,121.391L1.896,271.232
		c-2.529,2.529-2.529,6.955,0,9.484l17.387,17.387c1.265,1.264,2.845,1.896,4.742,1.896c1.896,0,3.477-0.633,4.742-1.896
		l121.391-121.391l121.391,121.391c1.265,1.264,2.846,1.896,4.742,1.896s3.477-0.633,4.742-1.896l17.387-17.387
		c2.528-2.529,2.528-6.955,0-9.484L176.713,150.158z"/>
</g>
</svg>
