<?xml version="1.0" encoding="UTF-8" standalone="no"?>
<svg width="127px" height="79px" viewBox="0 0 127 79" version="1.1" xmlns="http://www.w3.org/2000/svg" xmlns:xlink="http://www.w3.org/1999/xlink" xmlns:sketch="http://www.bohemiancoding.com/sketch/ns">
    <!-- Generator: Sketch 3.3.2 (12043) - http://www.bohemiancoding.com/sketch -->
    <title>Imported Layers</title>
    <desc>Created with Sketch.</desc>
    <defs>
        <path id="path-1" d="M6.86,0.328 C3.404,0.328 0.602,3.027 0.602,6.359 C0.602,9.902 3.283,12.549 6.86,12.549 C10.349,12.549 13.103,9.867 13.103,6.428 C13.103,3.012 10.367,0.328 6.86,0.328"></path>
    </defs>
    <g id="Page-1" stroke="none" stroke-width="1" fill="none" fill-rule="evenodd" sketch:type="MSPage">
        <g id="cart@2x" sketch:type="MSArtboardGroup" transform="translate(-2090.000000, -1464.000000)">
            <g id="ACCEPTED-PAYMENT-MET-+-Cards" sketch:type="MSLayerGroup" transform="translate(1650.000000, 1352.000000)">
                <g id="Cards" transform="translate(0.000000, 111.000000)">
                    <g id="Imported-Layers" transform="translate(440.000000, 1.000000)">
                        <path d="M126.044,74.449 C126.044,76.758 124.171,78.631 121.863,78.631 L4.794,78.631 C2.487,78.631 0.613,76.758 0.613,74.449 L0.613,4.418 C0.613,2.107 2.487,0.236 4.794,0.236 L121.863,0.236 C124.171,0.236 126.044,2.107 126.044,4.418 L126.044,74.449" id="Fill-1" fill="#FFFFFF" sketch:type="MSShapeGroup"></path>
                        <path d="M35.092,78.631 L121.863,78.631 C124.171,78.631 126.044,76.758 126.044,74.449 L126.044,45.096 C117.716,50.375 86.318,68.576 35.092,78.631" id="Fill-2" fill="#F6821F" sketch:type="MSShapeGroup"></path>
                        <g id="Group-5" transform="translate(58.000000, 33.000000)">
                            <mask id="mask-2" sketch:name="Clip 4" fill="white">
                                <use xlink:href="#path-1"></use>
                            </mask>
                            <g id="Clip-4"></g>
                            <path d="M6.86,0.328 C3.404,0.328 0.602,3.027 0.602,6.359 C0.602,9.902 3.283,12.549 6.86,12.549 C10.349,12.549 13.103,9.867 13.103,6.428 C13.103,3.012 10.367,0.328 6.86,0.328" id="Fill-3" sketch:type="MSShapeGroup" mask="url(#mask-2)"></path>
                        </g>
                        <path d="M29.325,33.547 L25.961,33.547 L25.961,45.285 L29.309,45.285 C31.084,45.285 32.369,44.863 33.496,43.932 C34.832,42.82 35.625,41.148 35.625,39.422 C35.625,35.957 33.036,33.547 29.325,33.547 L29.325,33.547 Z M32.002,42.363 C31.278,43.016 30.347,43.297 28.867,43.297 L28.251,43.297 L28.251,35.535 L28.867,35.535 C30.347,35.535 31.242,35.799 32.002,36.484 C32.794,37.189 33.265,38.279 33.265,39.404 C33.265,40.533 32.794,41.662 32.002,42.363 L32.002,42.363 Z" id="Fill-6" fill="#001722" sketch:type="MSShapeGroup"></path>
                        <path d="M36.682,33.547 L38.97,33.547 L38.97,45.285 L36.682,45.285 L36.682,33.547 Z" id="Fill-7" fill="#001722" sketch:type="MSShapeGroup"></path>
                        <path d="M44.568,38.049 C43.193,37.541 42.79,37.205 42.79,36.572 C42.79,35.834 43.508,35.271 44.497,35.271 C45.183,35.271 45.746,35.553 46.346,36.219 L47.541,34.656 C46.555,33.791 45.376,33.352 44.091,33.352 C42.016,33.352 40.431,34.795 40.431,36.713 C40.431,38.334 41.17,39.16 43.317,39.934 C44.215,40.25 44.672,40.461 44.901,40.603 C45.359,40.904 45.589,41.324 45.589,41.816 C45.589,42.769 44.831,43.471 43.809,43.471 C42.717,43.471 41.838,42.928 41.31,41.906 L39.834,43.334 C40.888,44.881 42.155,45.568 43.899,45.568 C46.275,45.568 47.946,43.982 47.946,41.713 C47.946,39.848 47.174,39.002 44.568,38.049" id="Fill-8" fill="#001722" sketch:type="MSShapeGroup"></path>
                        <path d="M48.667,39.422 C48.667,42.875 51.379,45.549 54.863,45.549 C55.85,45.549 56.694,45.356 57.734,44.863 L57.734,42.17 C56.816,43.086 56.007,43.453 54.968,43.453 C52.663,43.453 51.025,41.781 51.025,39.404 C51.025,37.154 52.714,35.375 54.863,35.375 C55.953,35.375 56.781,35.764 57.734,36.695 L57.734,34.002 C56.731,33.492 55.901,33.283 54.917,33.283 C51.448,33.283 48.667,36.012 48.667,39.422" id="Fill-9" fill="#001722" sketch:type="MSShapeGroup"></path>
                        <path d="M76.283,41.432 L73.149,33.547 L70.65,33.547 L75.633,45.586 L76.864,45.586 L81.934,33.547 L79.453,33.547 L76.283,41.432" id="Fill-10" fill="#001722" sketch:type="MSShapeGroup"></path>
                        <path d="M82.974,45.285 L89.468,45.285 L89.468,43.297 L85.262,43.297 L85.262,40.127 L89.308,40.127 L89.308,38.141 L85.262,38.141 L85.262,35.535 L89.468,35.535 L89.468,33.547 L82.974,33.547 L82.974,45.285" id="Fill-11" fill="#001722" sketch:type="MSShapeGroup"></path>
                        <path d="M98.53,37.012 C98.53,34.812 97.018,33.547 94.377,33.547 L90.979,33.547 L90.979,45.285 L93.269,45.285 L93.269,40.568 L93.569,40.568 L96.735,45.285 L99.552,45.285 L95.853,40.34 C97.581,39.988 98.53,38.809 98.53,37.012 L98.53,37.012 Z M93.935,38.949 L93.269,38.949 L93.269,35.393 L93.973,35.393 C95.4,35.393 96.176,35.994 96.176,37.135 C96.176,38.314 95.4,38.949 93.935,38.949 L93.935,38.949 Z" id="Fill-12" fill="#001722" sketch:type="MSShapeGroup"></path>
                        <path d="M100.145,34.422 C100.145,34.217 100.008,34.103 99.755,34.103 L99.422,34.103 L99.422,35.139 L99.667,35.139 L99.667,34.736 L99.956,35.139 L100.264,35.139 L99.918,34.711 C100.064,34.672 100.145,34.566 100.145,34.422 L100.145,34.422 Z M99.713,34.563 L99.667,34.563 L99.667,34.295 L99.716,34.295 C99.837,34.295 99.899,34.338 99.899,34.426 C99.899,34.516 99.834,34.563 99.713,34.563 L99.713,34.563 Z" id="Fill-13" fill="#231F1F" sketch:type="MSShapeGroup"></path>
                        <path d="M99.804,33.715 C99.303,33.715 98.903,34.117 98.903,34.619 C98.903,35.119 99.305,35.522 99.804,35.522 C100.295,35.522 100.696,35.115 100.696,34.619 C100.696,34.123 100.295,33.715 99.804,33.715 L99.804,33.715 Z M99.803,35.359 C99.403,35.359 99.08,35.031 99.08,34.621 C99.08,34.207 99.401,33.879 99.803,33.879 C100.194,33.879 100.514,34.213 100.514,34.621 C100.514,35.027 100.194,35.359 99.803,35.359 L99.803,35.359 Z" id="Fill-14" fill="#231F1F" sketch:type="MSShapeGroup"></path>
                    </g>
                </g>
            </g>
        </g>
    </g>
</svg>