<?xml version="1.0" encoding="UTF-8" standalone="no"?>
<svg width="42px" height="44px" viewBox="0 0 42 44" version="1.1" xmlns="http://www.w3.org/2000/svg" xmlns:xlink="http://www.w3.org/1999/xlink" xmlns:sketch="http://www.bohemiancoding.com/sketch/ns">
    <!-- Generator: Sketch 3.3.2 (12043) - http://www.bohemiancoding.com/sketch -->
    <title>Imported Layers</title>
    <desc>Created with Sketch.</desc>
    <defs></defs>
    <g id="Page-1" stroke="none" stroke-width="1" fill="none" fill-rule="evenodd" sketch:type="MSPage">
        <g id="11-filtered-sct-single-product@2x" sketch:type="MSArtboardGroup" transform="translate(-160.000000, -12422.000000)" stroke="#FFFFFF" stroke-width="2" fill="#FFFFFF">
            <g id="Rectangle-184-+-QUICK-START-GUIDE-+-Imported-Layers" sketch:type="MSLayerGroup" transform="translate(1.000000, 12348.000000)">
                <g id="QUICK-START-GUIDE-+-Imported-Layers" transform="translate(160.000000, 72.000000)" sketch:type="MSShapeGroup">
                    <g id="Imported-Layers" transform="translate(0.000000, 2.687500)">
                        <path d="M19.3041667,33.4633333 C19.3808333,33.5408333 19.4733333,33.6016667 19.575,33.6441667 C19.6775,33.6866667 19.785,33.7083333 19.8933333,33.7083333 C20.0025,33.7083333 20.11,33.6866667 20.2116667,33.6441667 C20.3141667,33.6016667 20.4066667,33.5408333 20.4833333,33.4633333 L28.235,25.7125 C28.56,25.3875 28.56,24.86 28.235,24.5341667 C27.9091667,24.2091667 27.3816667,24.2091667 27.0558333,24.5341667 L20.7266667,30.8633333 L20.7266667,1.50083333 C20.7266667,1.04 20.3541667,0.6675 19.8933333,0.6675 C19.4333333,0.6675 19.06,1.04 19.06,1.50083333 L19.06,30.8633333 L12.7308333,24.5341667 C12.4058333,24.2091667 11.8783333,24.2091667 11.5525,24.5341667 C11.2266667,24.86 11.2266667,25.3875 11.5525,25.7125 L19.3041667,33.4633333" id="Fill-1"></path>
                        <path d="M38.765,28.1908333 C38.305,28.1908333 37.9316667,28.5633333 37.9316667,29.0241667 L37.9316667,39.8341667 L1.85583333,39.8341667 L1.85583333,29.0241667 C1.85583333,28.5633333 1.4825,28.1908333 1.0225,28.1908333 C0.5625,28.1908333 0.189166667,28.5633333 0.189166667,29.0241667 L0.189166667,40.6675 C0.189166667,41.1283333 0.5625,41.5008333 1.0225,41.5008333 L38.765,41.5008333 C39.2258333,41.5008333 39.5983333,41.1283333 39.5983333,40.6675 L39.5983333,29.0241667 C39.5983333,28.5633333 39.2258333,28.1908333 38.765,28.1908333" id="Fill-2"></path>
                    </g>
                </g>
            </g>
        </g>
    </g>
</svg>