<?xml version="1.0" encoding="UTF-8" standalone="no"?>
<svg width="194px" height="194px" viewBox="0 0 194 194" version="1.1" xmlns="http://www.w3.org/2000/svg" xmlns:xlink="http://www.w3.org/1999/xlink" xmlns:sketch="http://www.bohemiancoding.com/sketch/ns">
    <!-- Generator: Sketch 3.3.2 (12043) - http://www.bohemiancoding.com/sketch -->
    <title>Feature1</title>
    <desc>
    
    </desc>
    <defs></defs>
    <g id="Page-1" stroke="none" stroke-width="1" fill="none" fill-rule="evenodd" sketch:type="MSPage">
        <g id="home" sketch:type="MSArtboardGroup" transform="translate(-1913.000000, -5454.000000)">
            <g id="FEATURES" sketch:type="MSLayerGroup" transform="translate(0.000000, 5127.000000)">
                <g transform="translate(1915.000000, 329.000000)" id="Feature3-+-Feature2-+-Feature1" sketch:type="MSShapeGroup">
                    <g>
                        <g id="Feature1">
                            <circle id="Oval-5" stroke="#A6A6A6" stroke-width="3" cx="95" cy="95" r="95"></circle>
                            <g id="Imported-Layers" transform="translate(34.947368, 36.000000)" fill="#A6A6A6">
                                <path d="M60.48,0.66097561 C27.4505263,0.66097561 0.582484211,27.497561 0.582484211,60.4853659 C0.582484211,74.4463415 5.50332632,88.0365854 14.4389895,98.7463415 C14.9054316,99.302439 15.5916632,99.6243902 16.3169684,99.6243902 L104.645474,99.6243902 C105.370779,99.6243902 106.057011,99.302439 106.521011,98.7439024 C115.459116,88.0317073 120.379958,74.4439024 120.379958,60.4853659 C120.379958,27.497561 93.5094737,0.66097561 60.48,0.66097561 L60.48,0.66097561 Z M103.485474,94.7463415 L17.4745263,94.7463415 C9.72328421,85.0487805 5.46425263,72.9292683 5.46425263,60.4853659 C5.46425263,30.1878049 30.1441684,5.54146341 60.48,5.54146341 C90.8158316,5.54146341 115.495747,30.1878049 115.495747,60.4853659 C115.495747,72.9268293 111.239158,85.0463415 103.485474,94.7463415 L103.485474,94.7463415 Z" id="Fill-1"></path>
                                <path d="M86.6837895,41.095122 C85.1574737,41.095122 83.6653474,41.6121951 82.4418526,42.5536585 C82.3612632,42.6073171 82.2831158,42.6634146 82.2049684,42.7268293 L54.5823158,65.5658537 C51.7030737,67.5268293 49.9862737,70.7682927 49.9887158,74.2341463 C49.9887158,80.0121951 54.6970947,84.7146341 60.4848842,84.7146341 C63.3006316,84.7146341 65.9503158,83.6073171 68.0261053,81.502439 C68.4608,81.0512195 68.8588632,80.5560976 69.2398316,79.9829268 L92.1150316,52.4268293 C92.1882947,52.3390244 92.2517895,52.2463415 92.3128421,52.1512195 C93.1968842,50.9463415 93.6633263,49.5390244 93.6633263,48.0634146 C93.6633263,44.2219512 90.5325474,41.095122 86.6837895,41.095122 L86.6837895,41.095122 Z M88.3151158,49.3463415 C88.2784842,49.3926829 88.2394105,49.4439024 88.2052211,49.4926829 L65.3935158,76.9756098 C65.3300211,77.0512195 65.2738526,77.1268293 65.2201263,77.2073171 C65.0101053,77.5317073 64.7829895,77.8317073 64.4679579,78.1707317 C63.4032,79.2439024 61.9892211,79.8341463 60.4848842,79.8341463 C57.3907368,79.8341463 54.8729263,77.3219512 54.8729263,74.2317073 C54.8704842,72.3780488 55.7911579,70.6463415 57.5128421,69.4609756 L85.1232842,46.6463415 C85.2014316,46.595122 85.2771368,46.5390244 85.3479579,46.4780488 C85.6239158,46.2463415 86.0732632,45.9731707 86.6837895,45.9731707 C87.8389053,45.9731707 88.7791158,46.9097561 88.7791158,48.0634146 C88.7791158,48.6390244 88.5251368,49.0780488 88.3151158,49.3463415 L88.3151158,49.3463415 Z" id="Fill-2"></path>
                                <path d="M19.8409263,58.7170732 L15.3938526,58.7170732 C14.0433684,58.7170732 12.9517474,59.8097561 12.9517474,61.1560976 C12.9517474,62.504878 14.0433684,63.595122 15.3938526,63.595122 L19.8409263,63.595122 C21.1914105,63.595122 22.2830316,62.504878 22.2830316,61.1560976 C22.2830316,59.8097561 21.1914105,58.7170732 19.8409263,58.7170732" id="Fill-3"></path>
                                <path d="M25.7361684,27.6243902 C24.7837474,28.5780488 24.7837474,30.1243902 25.7361684,31.0731707 L29.0867368,34.4170732 C29.5653895,34.895122 30.1905684,35.1317073 30.8133053,35.1317073 C31.4384842,35.1317073 32.0636632,34.895122 32.5398737,34.4170732 C33.4947368,33.4658537 33.4947368,31.9195122 32.5398737,30.9682927 L29.1893053,27.6243902 C28.2368842,26.6731707 26.6910316,26.6731707 25.7361684,27.6243902 Z" id="Fill-4"></path>
                                <path d="M61.0368,21.895122 C62.3872842,21.895122 63.4789053,20.802439 63.4789053,19.4560976 L63.4789053,15.202439 C63.4789053,13.8536585 62.3872842,12.7609756 61.0368,12.7609756 C59.6887579,12.7609756 58.5946947,13.8536585 58.5946947,15.202439 L58.5946947,19.4560976 C58.5946947,20.802439 59.6887579,21.895122 61.0368,21.895122" id="Fill-5"></path>
                                <path d="M92.4569263,27.6804878 L89.1674105,30.9682927 C88.2125474,31.9219512 88.2125474,33.4682927 89.1674105,34.4170732 C89.6436211,34.895122 90.2688,35.1317073 90.8939789,35.1317073 C91.5191579,35.1317073 92.1443368,34.895122 92.6205474,34.4170732 L95.9125053,31.1292683 C96.8649263,30.1756098 96.8649263,28.6292683 95.9125053,27.6804878 C94.9576421,26.7268293 93.4117895,26.7268293 92.4569263,27.6804878" id="Fill-6"></path>
                                <path d="M105.475789,58.7195122 L100.840674,58.7195122 C99.4901895,58.7195122 98.3985684,59.8097561 98.3985684,61.1585366 C98.3985684,62.5073171 99.4901895,63.597561 100.840674,63.597561 L105.475789,63.597561 C106.823832,63.597561 107.917895,62.5073171 107.917895,61.1585366 C107.917895,59.8097561 106.823832,58.7195122 105.475789,58.7195122" id="Fill-7"></path>
                            </g>
                        </g>
                    </g>
                </g>
            </g>
        </g>
    </g>
</svg>