<?xml version="1.0" encoding="UTF-8" standalone="no"?>
<svg width="194px" height="194px" viewBox="0 0 194 194" version="1.1" xmlns="http://www.w3.org/2000/svg" xmlns:xlink="http://www.w3.org/1999/xlink" xmlns:sketch="http://www.bohemiancoding.com/sketch/ns">
    <!-- Generator: Sketch 3.3.2 (12043) - http://www.bohemiancoding.com/sketch -->
    <title>Feature2</title>
    <desc>Created with Sketch.</desc>
    <defs></defs>
    <g id="Page-1" stroke="none" stroke-width="1" fill="none" fill-rule="evenodd" sketch:type="MSPage">
        <g id="home" sketch:type="MSArtboardGroup" transform="translate(-2448.000000, -5454.000000)">
            <g id="FEATURES" sketch:type="MSLayerGroup" transform="translate(0.000000, 5127.000000)">
                <g transform="translate(1915.000000, 329.000000)" id="Feature3-+-Feature2-+-Feature1" sketch:type="MSShapeGroup">
                    <g>
                        <g id="Feature2" transform="translate(535.000000, 0.000000)">
                            <circle id="Oval-5-Copy-2" stroke="#A6A6A6" stroke-width="3" cx="95" cy="95" r="95"></circle>
                            <path d="M133.713932,130.272 C119.167508,124.638 109.304849,117.91 107.867376,114.47 L107.867376,112.836 C115.060728,111.642 120.748728,108.322 121.142036,99.12 C122.533589,97.91 123.434006,96.148 123.434006,94.162 L123.434006,80.206 C123.434006,77.204 121.407569,74.692 118.662396,73.9 L118.662396,69.112 C118.662396,55.816 107.86538,45 94.5947126,45 C81.3220491,45 70.5250329,55.816 70.5250329,69.112 L70.5250329,73.918 C67.8098069,74.73 65.8133172,77.226 65.8133172,80.206 L65.8133172,94.162 C65.8133172,97.794 68.764129,100.752 72.3917508,100.752 L75.3665204,100.752 C76.8059895,104.712 78.7984862,108.21 81.3000878,110.952 L81.3000878,114.47 C79.8666082,117.908 70.0019526,124.636 55.4495393,130.272 C53.4310882,131.058 52.0754717,133.052 52.0754717,135.238 L52.0754717,137.606 C52.0754717,140.538 54.433326,142.924 57.336222,142.924 L131.831242,142.924 C134.732141,142.924 137.093989,140.538 137.093989,137.606 L137.093989,135.238 C137.093989,133.048 135.734379,131.052 133.713932,130.272 L133.713932,130.272 Z M110.017595,108.238 C111.5509,106.036 112.82466,103.508 113.826898,100.752 L116.857569,100.752 C116.899495,100.752 116.937429,100.74 116.979355,100.74 C116.380408,104.774 114.254147,107.036 110.017595,108.238 L110.017595,108.238 Z M119.441027,80.206 L119.441027,94.162 C119.441027,95.59 118.283063,96.752 116.857569,96.752 L115.132602,96.752 L115.132602,77.616 L116.857569,77.616 C118.283063,77.616 119.441027,78.778 119.441027,80.206 L119.441027,80.206 Z M94.5947126,49 C104.932536,49 113.465533,56.87 114.547631,66.944 C111.546907,59.846 104.641049,55.918 94.5867266,55.918 C84.6462045,55.918 77.6564941,59.968 74.6198333,67.084 C75.638043,56.942 84.2069767,49 94.5947126,49 L94.5947126,49 Z M74.1167179,96.752 L72.3917508,96.752 C70.9662571,96.752 69.8062966,95.59 69.8062966,94.162 L69.8062966,80.206 C69.8062966,78.778 70.9662571,77.616 72.3917508,77.616 L74.1167179,77.616 L74.1167179,96.752 L74.1167179,96.752 Z M133.101009,137.606 C133.101009,138.332 132.53201,138.924 131.831242,138.924 L57.336222,138.924 C56.6374506,138.924 56.0684511,138.332 56.0684511,137.606 L56.0684511,135.238 C56.0684511,134.692 56.4018649,134.194 56.8930013,134.002 C68.7102238,129.426 83.2127249,121.81 85.2032251,115.414 C85.2631198,115.22 85.2930671,115.02 85.2930671,114.818 L85.2930671,110.156 C85.2930671,109.632 85.0894252,109.13 84.7240676,108.758 C81.8411365,105.806 79.613054,101.712 78.2754059,96.916 C78.2394691,96.79 78.1675954,96.68 78.1096972,96.566 L78.1096972,75.616 C78.1096972,74.838 77.6544976,74.184 77.0076349,73.852 C77.8581395,64.848 84.0173102,59.918 94.5867266,59.918 C105.333831,59.918 111.365226,64.746 112.167815,73.9 C111.562878,74.244 111.139623,74.87 111.139623,75.616 L111.139623,96.39 C111.035805,96.554 110.94197,96.726 110.890061,96.916 C109.550417,101.712 107.322334,105.806 104.443396,108.758 C104.315621,108.89 104.235761,109.052 104.147916,109.21 C103.08179,109.302 101.963756,109.376 100.743901,109.424 C100.061101,108.39 98.8931549,107.704 97.5634928,107.704 L92.4025669,107.704 C90.2982668,107.704 88.5892716,109.416 88.5892716,111.524 C88.5892716,113.63 90.2982668,115.344 92.4025669,115.344 L97.5634928,115.344 C98.9610355,115.344 100.170908,114.58 100.833743,113.456 C101.855946,113.424 102.872159,113.378 103.874397,113.306 L103.874397,114.818 C103.874397,115.02 103.906341,115.22 103.964239,115.414 C105.958732,121.816 120.463229,129.428 132.276459,134.002 C132.769592,134.194 133.101009,134.69 133.101009,135.238 L133.101009,137.606 L133.101009,137.606 Z" id="Imported-Layers" fill="#A6A6A6"></path>
                        </g>
                    </g>
                </g>
            </g>
        </g>
    </g>
</svg>