<?xml version="1.0" encoding="UTF-8" standalone="no"?>
<svg width="194px" height="194px" viewBox="0 0 194 194" version="1.1" xmlns="http://www.w3.org/2000/svg" xmlns:xlink="http://www.w3.org/1999/xlink" xmlns:sketch="http://www.bohemiancoding.com/sketch/ns">
    <!-- Generator: Sketch 3.3.2 (12043) - http://www.bohemiancoding.com/sketch -->
    <title>Feature3</title>
    <desc>Created with Sketch.</desc>
    <defs></defs>
    <g id="Page-1" stroke="none" stroke-width="1" fill="none" fill-rule="evenodd" sketch:type="MSPage">
        <g id="home" sketch:type="MSArtboardGroup" transform="translate(-2180.000000, -5454.000000)">
            <g id="FEATURES" sketch:type="MSLayerGroup" transform="translate(0.000000, 5127.000000)">
                <g transform="translate(1915.000000, 329.000000)" id="Feature3-+-Feature2-+-Feature1" sketch:type="MSShapeGroup">
                    <g>
                        <g id="Feature3" transform="translate(267.000000, 0.000000)">
                            <circle id="Oval-5-Copy" stroke="#A6A6A6" stroke-width="3" cx="95" cy="95" r="95"></circle>
                            <g id="Imported-Layers" transform="translate(48.500000, 45.000000)" fill="#A6A6A6">
                                <path d="M98.9312741,23.409009 C98.6821107,22.1920206 97.7945946,21.2097812 96.6043758,20.8453024 C95.434749,20.4911197 94.1065637,20.8226512 93.2355212,21.6875161 L82.1817246,32.7392535 L72.7567568,34.6913771 L64.9462033,26.8787645 L66.9003861,17.4579151 L77.956242,6.4 C78.8375804,5.51454311 79.1567568,4.22342342 78.792278,3.03732304 C78.4298584,1.84504505 77.4455598,0.951351351 76.2182754,0.708365508 C74.3670528,0.341827542 72.4725869,0.156499356 70.5863578,0.156499356 C62.8643501,0.156499356 55.607722,3.16293436 50.154955,8.61981982 C42.3279279,16.4406692 43.4728443,29.5989704 44.621879,36.0010296 L5.14697555,70.3958816 C1.93462033,73.6082368 0.163706564,77.8872587 0.165765766,82.4422136 C0.165765766,86.9971686 1.93462033,91.2761905 5.14697555,94.4906049 C8.36550837,97.7070785 12.6445302,99.4800515 17.197426,99.4800515 C21.7503218,99.4800515 26.0499356,97.6823681 29.4002574,94.3217503 L63.6344916,55.0198198 C66.645045,55.5696268 69.6988417,55.8579151 72.5405405,55.8579151 C80.4602317,55.8579151 86.8499356,53.6566281 91.0198198,49.4867439 C97.8501931,42.6543115 100.809266,32.9081081 98.9312741,23.409009 L98.9312741,23.409009 Z M88.1081081,46.5750322 C84.7268983,49.9541828 79.3441441,51.7395109 72.5384813,51.7395109 C69.6,51.7395109 66.3979408,51.3997426 63.2782497,50.7531532 C62.5534106,50.609009 61.7956242,50.8561133 61.3096525,51.4182754 L26.389704,91.5129987 C23.9124839,93.9943372 20.6486486,95.3595882 17.197426,95.3595882 C13.7441441,95.3595882 10.4988417,94.0169884 8.06074646,91.5788932 C5.62471042,89.1407979 4.28416988,85.8975547 4.28416988,82.4422136 C4.28416988,78.9868726 5.62471042,75.7436293 7.95778636,73.4043758 L48.2234234,38.3279279 C48.7814672,37.8419562 49.034749,37.0903475 48.8864865,36.3634492 C48.0648649,32.3397683 45.9377091,18.6584299 53.0666667,11.5315315 C57.7431145,6.85302445 63.9660232,4.27490347 70.5863578,4.27490347 C71.7333333,4.27490347 72.8823681,4.35521236 74.0190476,4.51377091 L63.5521236,14.980695 C63.2679537,15.2648649 63.0723295,15.6252252 62.9899614,16.0185328 L60.6877735,27.1320463 C60.5477477,27.811583 60.7577864,28.5158301 61.2499356,29.0059202 L70.6316602,38.3876448 C71.1238095,38.8777349 71.8280566,39.0918919 72.5055341,38.9477477 L83.6190476,36.647619 C84.010296,36.565251 84.3727156,36.371686 84.6568855,36.0875161 L95.1279279,25.6185328 C96.198713,33.3075933 93.6288288,41.0501931 88.1081081,46.5750322 L88.1081081,46.5750322 Z" id="Fill-1"></path>
                                <path d="M14.5534106,79.7981982 L14.5513514,79.8002574 C13.0954955,81.2602317 13.0954955,83.6241956 14.5534106,85.0841699 C16.0133848,86.5462033 18.3773488,86.5462033 19.8393822,85.0882883 L19.8414414,85.0841699 C21.2993565,83.6241956 21.2993565,81.2561133 19.8414414,79.796139 C18.3814672,78.3382239 16.0133848,78.3382239 14.5534106,79.7981982" id="Fill-2"></path>
                            </g>
                        </g>
                    </g>
                </g>
            </g>
        </g>
    </g>
</svg>