<?xml version="1.0" encoding="UTF-8" standalone="no"?>
<svg width="44px" height="44px" viewBox="0 0 44 44" version="1.1" xmlns="http://www.w3.org/2000/svg" xmlns:xlink="http://www.w3.org/1999/xlink" xmlns:sketch="http://www.bohemiancoding.com/sketch/ns">
    <!-- Generator: Sketch 3.3.2 (12043) - http://www.bohemiancoding.com/sketch -->
    <title>Product Search</title>
    <desc>Created with Sketch.</desc>
    <defs></defs>
    <g id="Page-1" stroke="none" stroke-width="1" fill="none" fill-rule="evenodd" sketch:type="MSPage">
        <g id="HEADER" sketch:type="MSLayerGroup" transform="translate(-2525.000000, -53.000000)" fill="#FFFFFF">
            <g id="NAV" transform="translate(653.000000, 51.000000)" sketch:type="MSShapeGroup">
                <g id="Product-Search" transform="translate(1872.000000, 2.000000)">
                    <path d="M43.512124,41.5390147 L32.1703883,30.3785188 C35.1404241,27.1516607 36.9653116,22.8840914 36.9653116,18.1880783 C36.963876,8.14244046 28.6895791,0 18.481938,0 C8.2742969,0 0,8.14244046 0,18.1880783 C0,28.2337162 8.2742969,36.3761566 18.481938,36.3761566 C22.8923458,36.3761566 26.9374747,34.8506558 30.1148777,32.3145188 L41.5006134,43.5190147 C42.0553866,44.0655334 42.9560587,44.0655334 43.510832,43.5190147 C44.0668972,42.9725677 44.0668972,42.0855334 43.512124,41.5390147 L43.512124,41.5390147 Z M18.481938,33.577814 C9.8451615,33.577814 2.84370636,26.687615 2.84370636,18.1880783 C2.84370636,9.6885416 9.8451615,2.79834258 18.481938,2.79834258 C27.1187863,2.79834258 34.1201697,9.6885416 34.1201697,18.1880783 C34.1201697,26.687615 27.1187863,33.577814 18.481938,33.577814 L18.481938,33.577814 Z" id="Imported-Layers-Copy-3"></path>
                </g>
            </g>
        </g>
    </g>
</svg>