<?xml version="1.0" encoding="UTF-8" standalone="no"?>
<svg width="26px" height="25px" viewBox="0 0 26 25" version="1.1" xmlns="http://www.w3.org/2000/svg" xmlns:xlink="http://www.w3.org/1999/xlink" xmlns:sketch="http://www.bohemiancoding.com/sketch/ns">
    <!-- Generator: Sketch 3.3.2 (12043) - http://www.bohemiancoding.com/sketch -->
    <title>Imported Layers Copy 5</title>
    <desc>Created with Sketch.</desc>
    <defs></defs>
    <g id="Page-1" stroke="none" stroke-width="1" fill="none" fill-rule="evenodd" sketch:type="MSPage">
        <g id="no-sct-products-support-addons-grid@2x" sketch:type="MSArtboardGroup" transform="translate(-465.000000, -2423.000000)" fill="#A6A6A6">
            <g id="ADD-ON'S-&amp;-ACCESSORIES" sketch:type="MSLayerGroup" transform="translate(299.000000, 1700.000000)">
                <g id="Kits" transform="translate(0.000000, 236.000000)" sketch:type="MSShapeGroup">
                    <g id="Clothing-&amp;-swag">
                        <g id="Group" transform="translate(30.000000, 487.000000)">
                            <path d="M161.897684,9.16953458 C161.827276,8.8456085 161.516972,8.64817833 161.178421,8.64817833 L152.558976,8.64817833 L149.737912,0.521356248 C149.61508,0.167658954 149.37107,0 148.990062,0 C148.609351,0 148.351175,0.167658954 148.228385,0.521356248 L145.406982,8.64817833 L136.787876,8.64817833 C136.406868,8.64817833 136.167015,8.81736184 136.040026,9.16953458 C135.941286,9.54965753 136.024969,9.83271701 136.294003,10.0427248 L143.206483,15.4372861 L140.695383,23.705045 C140.585233,24.0680167 140.695383,24.3669993 140.977651,24.5782352 C141.287912,24.7615209 141.612976,24.7840505 141.908476,24.5782352 L148.990062,19.6485368 L156.057481,24.5782352 C156.208264,24.6833873 156.368039,24.7191297 156.523064,24.7191297 C156.960356,24.7191297 157.298907,24.3811015 157.298907,23.9444852 C157.298907,23.8741862 157.289279,23.7741583 157.242623,23.6206015 L154.759814,15.4372861 L161.671997,10.0427248 C161.950023,9.8257718 162.024672,9.53551303 161.897684,9.16953458" id="Imported-Layers-Copy-5"></path>
                        </g>
                    </g>
                </g>
            </g>
        </g>
    </g>
</svg>