<?xml version="1.0" encoding="UTF-8" standalone="no"?>
<svg width="127px" height="79px" viewBox="0 0 127 79" version="1.1" xmlns="http://www.w3.org/2000/svg" xmlns:xlink="http://www.w3.org/1999/xlink" xmlns:sketch="http://www.bohemiancoding.com/sketch/ns">
    <!-- Generator: Sketch 3.3.2 (12043) - http://www.bohemiancoding.com/sketch -->
    <title>MasterCard</title>
    <desc>Created with Sketch.</desc>
    <defs></defs>
    <g id="Page-1" stroke="none" stroke-width="1" fill="none" fill-rule="evenodd" sketch:type="MSPage">
        <g id="cart@2x" sketch:type="MSArtboardGroup" transform="translate(-1796.000000, -1463.000000)">
            <g id="ACCEPTED-PAYMENT-MET-+-Cards" sketch:type="MSLayerGroup" transform="translate(1650.000000, 1352.000000)">
                <g id="Cards" transform="translate(0.000000, 111.000000)" sketch:type="MSShapeGroup">
                    <g id="MasterCard" transform="translate(146.000000, 0.000000)">
                        <path d="M4.794,78.393 C2.487,78.393 0.613,76.523 0.613,74.213 L0.613,4.182 C0.613,1.872 2.487,0 4.794,0 L121.863,0 C124.171,0 126.044,1.872 126.044,4.182 L126.044,74.213 C126.044,76.523 124.171,78.393 121.863,78.393" id="Fill-17" fill="#FFFFFF"></path>
                        <path d="M78.381,62.341 L79.542,62.311 L80.689,62.227 L81.812,62.085 L82.928,61.886 L84.013,61.636 L85.084,61.332 L86.131,60.975 L87.156,60.573 L88.157,60.118 L89.129,59.625 L90.07,59.077 L90.989,58.493 L91.87,57.864 L92.719,57.195 L93.54,56.489 L94.322,55.738 L95.073,54.956 L95.779,54.135 L96.447,53.286 L97.077,52.405 L97.662,51.487 L98.207,50.544 L98.701,49.573 L99.157,48.572 L99.559,47.546 L99.915,46.499 L100.22,45.43 L100.469,44.344 L100.667,43.229 L100.811,42.104 L100.896,40.958 L100.924,39.797 L100.896,38.643 L100.811,37.504 L100.667,36.381 L100.469,35.28 L100.22,34.195 L99.915,33.132 L99.559,32.085 L99.157,31.067 L98.701,30.074 L98.207,29.101 L97.662,28.168 L97.077,27.25 L96.447,26.369 L95.779,25.526 L95.073,24.708 L94.322,23.925 L93.54,23.181 L92.719,22.475 L91.87,21.807 L90.989,21.177 L90.07,20.592 L89.129,20.054 L88.157,19.561 L87.156,19.104 L86.131,18.702 L85.084,18.346 L84.013,18.042 L82.928,17.792 L81.812,17.595 L80.689,17.45 L79.542,17.366 L78.381,17.335 L77.226,17.366 L76.08,17.45 L74.958,17.595 L73.849,17.792 L72.763,18.042 L71.694,18.346 L70.653,18.702 L69.628,19.104 L68.633,19.561 L67.67,20.054 L66.729,20.592 L65.818,21.177 L64.939,21.807 L64.087,22.475 L63.275,23.181 L62.493,23.925 L61.75,24.708 L61.043,25.526 L60.375,26.369 L59.754,27.25 L59.169,28.168 L58.629,29.101 L58.129,30.074 L57.681,31.067 L57.278,32.085 L56.93,33.132 L56.625,34.195 L56.375,35.28 L56.178,36.381 L56.034,37.504 L55.949,38.643 L55.919,39.797 L55.949,40.958 L56.034,42.104 L56.178,43.229 L56.375,44.344 L56.625,45.43 L56.93,46.499 L57.278,47.546 L57.681,48.572 L58.129,49.573 L58.629,50.544 L59.169,51.487 L59.754,52.405 L60.375,53.286 L61.043,54.135 L61.75,54.956 L62.493,55.738 L63.275,56.489 L64.087,57.195 L64.939,57.864 L65.818,58.493 L66.729,59.077 L67.67,59.625 L68.633,60.118 L69.628,60.573 L70.653,60.975 L71.694,61.332 L72.763,61.636 L73.849,61.886 L74.958,62.085 L76.08,62.227 L77.226,62.311 L78.381,62.341" id="Fill-18" fill="#FBB231"></path>
                        <path d="M48.276,62.341 L49.429,62.311 L50.575,62.227 L51.7,62.085 L52.808,61.886 L53.893,61.636 L54.962,61.332 L56.003,60.975 L57.028,60.573 L58.022,60.118 L58.986,59.625 L59.928,59.077 L60.837,58.493 L61.719,57.864 L62.569,57.195 L63.381,56.489 L64.163,55.738 L64.907,54.956 L65.613,54.135 L66.281,53.286 L66.903,52.405 L67.489,51.487 L68.027,50.544 L68.528,49.573 L68.975,48.572 L69.378,47.546 L69.727,46.499 L70.03,45.43 L70.282,44.344 L70.478,43.229 L70.623,42.104 L70.706,40.958 L70.737,39.797 L70.706,38.643 L70.623,37.504 L70.478,36.381 L70.282,35.28 L70.03,34.195 L69.727,33.132 L69.378,32.085 L68.975,31.067 L68.528,30.074 L68.027,29.101 L67.489,28.168 L66.903,27.25 L66.281,26.369 L65.613,25.526 L64.907,24.708 L64.163,23.925 L63.381,23.181 L62.569,22.475 L61.719,21.807 L60.837,21.177 L59.928,20.592 L58.986,20.054 L58.022,19.561 L57.028,19.104 L56.003,18.702 L54.962,18.346 L53.893,18.042 L52.808,17.792 L51.7,17.595 L50.575,17.45 L49.429,17.366 L48.276,17.335 L47.114,17.366 L45.968,17.45 L44.845,17.595 L43.728,17.792 L42.643,18.042 L41.572,18.346 L40.525,18.702 L39.501,19.104 L38.499,19.561 L37.527,20.054 L36.586,20.592 L35.667,21.177 L34.786,21.807 L33.936,22.475 L33.117,23.181 L32.336,23.925 L31.584,24.708 L30.878,25.526 L30.21,26.369 L29.58,27.25 L28.996,28.168 L28.448,29.101 L27.956,30.074 L27.499,31.067 L27.097,32.085 L26.741,33.132 L26.437,34.195 L26.187,35.28 L25.989,36.381 L25.845,37.504 L25.761,38.643 L25.731,39.797 L25.761,40.958 L25.845,42.104 L25.989,43.229 L26.187,44.344 L26.437,45.43 L26.741,46.499 L27.097,47.546 L27.499,48.572 L27.956,49.573 L28.448,50.544 L28.996,51.487 L29.58,52.405 L30.21,53.286 L30.878,54.135 L31.584,54.956 L32.336,55.738 L33.117,56.489 L33.936,57.195 L34.786,57.864 L35.667,58.493 L36.586,59.077 L37.527,59.625 L38.499,60.118 L39.501,60.573 L40.525,60.975 L41.572,61.332 L42.643,61.636 L43.728,61.886 L44.845,62.085 L45.968,62.227 L47.114,62.311 L48.276,62.341" id="Fill-19" fill="#EC1C2E"></path>
                        <path d="M60.695,25.967 L72.65,25.967 L72.65,24.744 L61.727,24.744 L60.695,25.967" id="Fill-20" fill="#FBB231"></path>
                        <path d="M58.903,28.684 L72.65,28.684 L72.65,27.461 L59.624,27.461 L58.903,28.684" id="Fill-21" fill="#FBB231"></path>
                        <path d="M57.567,31.394 L72.65,31.394 L72.65,30.171 L58.099,30.171 L57.567,31.394" id="Fill-22" fill="#FBB231"></path>
                        <path d="M56.648,34.111 L72.65,34.111 L72.65,32.89 L57.028,32.89 L56.648,34.111" id="Fill-23" fill="#FBB231"></path>
                        <path d="M57.18,47.244 L72.687,47.244 L72.687,46.021 L56.8,46.021 L57.18,47.244" id="Fill-24" fill="#FBB231"></path>
                        <path d="M58.326,49.961 L72.687,49.961 L72.687,48.739 L57.756,48.739 L58.326,49.961" id="Fill-25" fill="#FBB231"></path>
                        <path d="M59.934,52.671 L72.687,52.671 L72.687,51.449 L59.169,51.449 L59.934,52.671" id="Fill-26" fill="#FBB231"></path>
                        <path d="M62.152,55.388 L72.687,55.388 L72.687,54.158 L61.082,54.158 L62.152,55.388" id="Fill-27" fill="#FBB231"></path>
                        <path d="M56.11,36.821 L72.65,36.821 L72.65,35.599 L56.345,35.599 L56.11,36.821" id="Fill-28" fill="#FBB231"></path>
                        <path d="M66.19,44.534 L72.498,44.534 L72.498,43.311 L66.418,43.311 L66.19,44.534" id="Fill-29" fill="#FBB231"></path>
                        <path d="M66.691,41.823 L72.498,41.823 L72.498,40.594 L66.919,40.594 L66.691,41.823" id="Fill-30" fill="#FBB231"></path>
                        <path d="M55.692,40.594 L57.332,40.594 L57.332,41.823 L55.769,41.823 L55.692,40.594" id="Fill-31" fill="#FBB231"></path>
                        <path d="M52.632,39.113 L52.526,39.106 L52.42,39.091 L52.321,39.076 L52.224,39.061 L52.131,39.046 L52.033,39.03 L51.935,39.016 L51.828,39 L51.722,38.985 L51.601,38.977 L51.464,38.969 L51.32,38.961 L51.16,38.961 L50.986,38.969 L50.788,38.985 L50.568,39 L50.417,39.023 L50.272,39.046 L50.143,39.091 L50.029,39.136 L49.922,39.189 L49.825,39.25 L49.748,39.327 L49.679,39.395 L49.634,39.478 L49.597,39.562 L49.581,39.652 L49.581,39.744 L49.603,39.843 L49.634,39.941 L49.694,40.04 L49.771,40.139 L49.922,40.282 L50.106,40.396 L50.317,40.495 L50.545,40.578 L50.788,40.655 L51.038,40.738 L51.289,40.83 L51.532,40.928 L51.76,41.057 L51.972,41.216 L52.162,41.407 L52.321,41.642 L52.443,41.93 L52.52,42.271 L52.549,42.682 L52.52,43.16 L52.466,43.517 L52.375,43.828 L52.253,44.116 L52.102,44.366 L51.928,44.587 L51.729,44.776 L51.517,44.943 L51.283,45.088 L51.038,45.202 L50.788,45.3 L50.53,45.376 L50.265,45.437 L50.006,45.483 L49.757,45.505 L49.506,45.521 L49.271,45.527 L48.942,45.527 L48.64,45.521 L48.374,45.521 L48.124,45.514 L47.896,45.505 L47.691,45.49 L47.51,45.475 L47.335,45.452 L47.175,45.437 L47.031,45.407 L46.887,45.383 L46.758,45.346 L46.628,45.315 L46.508,45.269 L46.385,45.225 L46.256,45.179 L46.598,43.502 L46.667,43.517 L46.749,43.54 L46.856,43.569 L46.986,43.601 L47.122,43.63 L47.274,43.661 L47.441,43.698 L47.622,43.729 L47.812,43.759 L48.01,43.79 L48.215,43.812 L48.428,43.835 L48.647,43.842 L48.869,43.85 L49.087,43.85 L49.308,43.842 L49.528,43.797 L49.703,43.736 L49.839,43.653 L49.946,43.547 L50.022,43.44 L50.082,43.318 L50.121,43.198 L50.15,43.084 L50.167,42.863 L50.098,42.673 L49.968,42.521 L49.779,42.393 L49.551,42.279 L49.285,42.165 L48.989,42.058 L48.693,41.938 L48.39,41.801 L48.102,41.642 L47.836,41.444 L47.592,41.209 L47.403,40.92 L47.266,40.578 L47.197,40.169 L47.205,39.684 L47.243,39.387 L47.297,39.106 L47.373,38.848 L47.463,38.605 L47.585,38.378 L47.721,38.18 L47.881,37.99 L48.071,37.824 L48.293,37.68 L48.534,37.558 L48.807,37.444 L49.11,37.361 L49.453,37.292 L49.825,37.239 L50.234,37.208 L50.683,37.2 L50.962,37.2 L51.221,37.208 L51.457,37.217 L51.669,37.224 L51.859,37.239 L52.033,37.254 L52.185,37.269 L52.321,37.285 L52.451,37.299 L52.558,37.322 L52.655,37.338 L52.748,37.353 L52.823,37.367 L52.891,37.376 L52.959,37.391 L53.02,37.399 L52.632,39.113" id="Fill-32" fill="#FFFFFF"></path>
                        <path d="M52.632,39.113 L52.632,39.113 L52.526,39.106 L52.42,39.091 L52.321,39.076 L52.224,39.061 L52.131,39.046 L52.033,39.03 L51.935,39.016 L51.828,39 L51.722,38.985 L51.601,38.977 L51.464,38.969 L51.32,38.961 L51.16,38.961 L50.986,38.969 L50.788,38.985 L50.568,39 L50.417,39.023 L50.272,39.046 L50.143,39.091 L50.029,39.136 L49.922,39.189 L49.825,39.25 L49.748,39.327 L49.679,39.395 L49.634,39.478 L49.597,39.562 L49.581,39.652 L49.581,39.744 L49.603,39.843 L49.634,39.941 L49.694,40.04 L49.771,40.139 L49.922,40.282 L50.106,40.396 L50.317,40.495 L50.545,40.578 L50.788,40.655 L51.038,40.738 L51.289,40.83 L51.532,40.928 L51.76,41.057 L51.972,41.216 L52.162,41.407 L52.321,41.642 L52.443,41.93 L52.52,42.271 L52.549,42.682 L52.52,43.16 L52.466,43.517 L52.375,43.828 L52.253,44.116 L52.102,44.366 L51.928,44.587 L51.729,44.776 L51.517,44.943 L51.283,45.088 L51.038,45.202 L50.788,45.3 L50.53,45.376 L50.265,45.437 L50.006,45.483 L49.757,45.505 L49.506,45.521 L49.271,45.527 L48.942,45.527 L48.64,45.521 L48.374,45.521 L48.124,45.514 L47.896,45.505 L47.691,45.49 L47.51,45.475 L47.335,45.452 L47.175,45.437 L47.031,45.407 L46.887,45.383 L46.758,45.346 L46.628,45.315 L46.508,45.269 L46.385,45.225 L46.256,45.179 L46.598,43.502 L46.667,43.517 L46.749,43.54 L46.856,43.569 L46.986,43.601 L47.122,43.63 L47.274,43.661 L47.441,43.698 L47.622,43.729 L47.812,43.759 L48.01,43.79 L48.215,43.812 L48.428,43.835 L48.647,43.842 L48.869,43.85 L49.087,43.85 L49.308,43.842 L49.528,43.797 L49.703,43.736 L49.839,43.653 L49.946,43.547 L50.022,43.44 L50.082,43.318 L50.121,43.198 L50.15,43.084 L50.167,42.863 L50.098,42.673 L49.968,42.521 L49.779,42.393 L49.551,42.279 L49.285,42.165 L48.989,42.058 L48.693,41.938 L48.39,41.801 L48.102,41.642 L47.836,41.444 L47.592,41.209 L47.403,40.92 L47.266,40.578 L47.197,40.169 L47.205,39.684 L47.243,39.387 L47.297,39.106 L47.373,38.848 L47.463,38.605 L47.585,38.378 L47.721,38.18 L47.881,37.99 L48.071,37.824 L48.293,37.68 L48.534,37.558 L48.807,37.444 L49.11,37.361 L49.453,37.292 L49.825,37.239 L50.234,37.208 L50.683,37.2 L50.962,37.2 L51.221,37.208 L51.457,37.217 L51.669,37.224 L51.859,37.239 L52.033,37.254 L52.185,37.269 L52.321,37.285 L52.451,37.299 L52.558,37.322 L52.655,37.338 L52.748,37.353 L52.823,37.367 L52.891,37.376 L52.959,37.391 L53.02,37.399 L52.632,39.113" id="Stroke-33" stroke="#FFFFFF" stroke-width="0.216"></path>
                        <path d="M54.432,35.524 L56.535,35.524 L56.224,37.361 L57.491,37.361 L57.218,39.076 L55.881,39.038 L55.153,43.273 L55.145,43.425 L55.183,43.555 L55.259,43.653 L55.358,43.736 L55.495,43.79 L55.647,43.835 L55.813,43.865 L55.996,43.881 L56.162,43.874 L56.314,43.858 L56.451,43.835 L56.573,43.805 L56.672,43.774 L56.74,43.752 L56.785,43.736 L56.8,43.729 L56.535,45.141 L56.481,45.179 L56.428,45.209 L56.375,45.239 L56.322,45.269 L56.269,45.292 L56.208,45.315 L56.14,45.338 L56.071,45.361 L55.996,45.383 L55.919,45.399 L55.829,45.414 L55.738,45.43 L55.64,45.445 L55.525,45.46 L55.403,45.475 L55.273,45.49 L54.696,45.49 L54.393,45.467 L54.128,45.437 L53.886,45.392 L53.681,45.338 L53.505,45.269 L53.361,45.195 L53.232,45.103 L53.134,45.004 L53.058,44.898 L53.003,44.769 L52.967,44.639 L52.943,44.496 L52.936,44.336 L52.936,44.169 L52.959,43.995 L52.982,43.805 L54.432,35.524" id="Fill-34" fill="#FFFFFF"></path>
                        <path d="M54.432,35.524 L56.535,35.524 L56.224,37.361 L57.491,37.361 L57.218,39.076 L55.881,39.038 L55.153,43.273 L55.145,43.425 L55.183,43.555 L55.259,43.653 L55.358,43.736 L55.495,43.79 L55.647,43.835 L55.813,43.865 L55.996,43.881 L56.162,43.874 L56.314,43.858 L56.451,43.835 L56.573,43.805 L56.672,43.774 L56.74,43.752 L56.785,43.736 L56.8,43.729 L56.535,45.141 L56.481,45.179 L56.428,45.209 L56.375,45.239 L56.322,45.269 L56.269,45.292 L56.208,45.315 L56.14,45.338 L56.071,45.361 L55.996,45.383 L55.919,45.399 L55.829,45.414 L55.738,45.43 L55.64,45.445 L55.525,45.46 L55.403,45.475 L55.273,45.49 L54.696,45.49 L54.393,45.467 L54.128,45.437 L53.886,45.392 L53.681,45.338 L53.505,45.269 L53.361,45.195 L53.232,45.103 L53.134,45.004 L53.058,44.898 L53.003,44.769 L52.967,44.639 L52.943,44.496 L52.936,44.336 L52.936,44.169 L52.959,43.995 L52.982,43.805 L54.432,35.524 M59.169,41.938 L59.169,41.938 L59.146,42.066 L59.139,42.202 L59.153,42.347 L59.184,42.491 L59.237,42.636 L59.299,42.774 L59.381,42.917 L59.472,43.045 L59.578,43.175 L59.691,43.29 L59.814,43.403 L59.95,43.493 L60.087,43.578 L60.239,43.645 L60.39,43.698 L60.543,43.729 L60.739,43.759 L60.93,43.782 L61.127,43.805 L61.324,43.82 L61.522,43.828 L61.727,43.828 L61.924,43.82 L62.129,43.805 L62.333,43.774 L62.539,43.736 L62.751,43.691 L62.956,43.623 L63.17,43.54 L63.389,43.447 L63.602,43.327 L63.821,43.198 L63.518,45.065 L63.395,45.125 L63.275,45.187 L63.153,45.231 L63.04,45.278 L62.926,45.315 L62.804,45.354 L62.683,45.383 L62.554,45.407 L62.417,45.43 L62.266,45.445 L62.106,45.46 L61.932,45.475 L61.734,45.483 L61.53,45.483 L61.293,45.49 L61.043,45.49 L60.671,45.483 L60.293,45.445 L59.912,45.392 L59.533,45.3 L59.161,45.187 L58.805,45.042 L58.462,44.853 L58.144,44.632 L57.848,44.374 L57.59,44.063 L57.37,43.713 L57.186,43.311 L57.059,42.863 L56.976,42.354 L56.952,41.793 L56.991,41.171 L57.021,40.928 L57.065,40.646 L57.127,40.352 L57.21,40.031 L57.325,39.707 L57.46,39.379 L57.635,39.046 L57.848,38.727 L58.09,38.423 L58.386,38.135 L58.721,37.877 L59.1,37.649 L59.54,37.459 L60.034,37.322 L60.579,37.232 L61.195,37.2 L61.491,37.208 L61.803,37.239 L62.114,37.292 L62.426,37.367 L62.728,37.482 L63.025,37.619 L63.299,37.801 L63.549,38.013 L63.776,38.271 L63.966,38.576 L64.117,38.924 L64.224,39.327 L64.285,39.781 L64.293,40.297 L64.24,40.874 L64.125,41.513 L64.087,41.976 L58.555,41.976 L58.903,40.479 L62.228,40.479 L62.243,40.291 L62.234,40.108 L62.219,39.941 L62.19,39.79 L62.137,39.646 L62.084,39.515 L62.007,39.402 L61.932,39.296 L61.842,39.205 L61.742,39.129 L61.628,39.061 L61.514,39 L61.393,38.955 L61.271,38.924 L61.142,38.901 L61.005,38.886 L60.861,38.894 L60.725,38.917 L60.596,38.948 L60.467,38.992 L60.337,39.053 L60.225,39.122 L60.109,39.205 L60.012,39.296 L59.912,39.402 L59.821,39.515 L59.738,39.638 L59.669,39.768 L59.601,39.904 L59.548,40.055 L59.502,40.207 L59.169,41.938" id="Stroke-35" stroke="#FFFFFF" stroke-width="0.216"></path>
                        <path d="M77.272,37.816 L77.174,37.763 L77.076,37.717 L76.968,37.664 L76.854,37.61 L76.74,37.565 L76.613,37.52 L76.483,37.474 L76.347,37.429 L76.203,37.391 L76.057,37.361 L75.899,37.33 L75.74,37.307 L75.565,37.292 L75.391,37.277 L74.829,37.277 L74.631,37.292 L74.425,37.315 L74.214,37.353 L74.001,37.413 L73.789,37.497 L73.576,37.604 L73.363,37.739 L73.158,37.907 L72.96,38.104 L72.77,38.347 L72.59,38.628 L72.422,38.961 L72.263,39.341 L72.118,39.768 L71.998,40.253 L71.95,40.525 L71.921,40.791 L71.906,41.057 L71.915,41.315 L71.935,41.573 L71.988,41.816 L72.057,42.044 L72.141,42.271 L72.255,42.477 L72.391,42.673 L72.552,42.848 L72.733,43.008 L72.938,43.145 L73.173,43.258 L73.432,43.357 L73.72,43.425 L73.819,43.447 L73.934,43.47 L74.07,43.486 L74.222,43.502 L74.387,43.517 L74.752,43.517 L74.942,43.502 L75.139,43.477 L75.337,43.44 L75.526,43.387 L75.716,43.327 L75.906,43.243 L76.08,43.145 L76.239,43.023 L76.392,42.887 L76.051,44.914 L76.004,44.951 L75.96,44.997 L75.899,45.051 L75.831,45.094 L75.748,45.155 L75.641,45.209 L75.519,45.262 L75.383,45.307 L75.208,45.361 L75.01,45.399 L74.783,45.43 L74.517,45.46 L74.222,45.475 L73.879,45.483 L73.493,45.475 L73.067,45.452 L72.718,45.414 L72.369,45.338 L72.02,45.225 L71.671,45.072 L71.336,44.891 L71.017,44.662 L70.714,44.397 L70.433,44.094 L70.182,43.752 L69.97,43.373 L69.788,42.948 L69.652,42.484 L69.561,41.976 L69.53,41.437 L69.545,40.845 L69.628,40.214 L69.69,39.904 L69.757,39.6 L69.833,39.304 L69.91,39.023 L69.992,38.757 L70.091,38.492 L70.19,38.241 L70.296,38.006 L70.412,37.771 L70.524,37.55 L70.653,37.338 L70.789,37.141 L70.927,36.95 L71.078,36.769 L71.229,36.602 L71.39,36.442 L71.563,36.29 L71.739,36.146 L71.921,36.017 L72.111,35.895 L72.316,35.781 L72.521,35.684 L72.733,35.592 L72.954,35.508 L73.19,35.432 L73.423,35.372 L73.667,35.318 L73.926,35.273 L74.183,35.234 L74.456,35.205 L74.729,35.19 L75.018,35.181 L75.263,35.19 L75.496,35.205 L75.724,35.227 L75.951,35.258 L76.165,35.288 L76.369,35.333 L76.566,35.372 L76.749,35.417 L76.923,35.462 L77.076,35.508 L77.22,35.554 L77.34,35.599 L77.447,35.637 L77.538,35.668 L77.606,35.698 L77.653,35.714 L77.272,37.816" id="Fill-36" fill="#FFFFFF"></path>
                        <path d="M77.272,37.816 L77.272,37.816 L77.174,37.763 L77.076,37.717 L76.968,37.664 L76.854,37.61 L76.74,37.565 L76.613,37.52 L76.483,37.474 L76.347,37.429 L76.203,37.391 L76.057,37.361 L75.899,37.33 L75.74,37.307 L75.565,37.292 L75.391,37.277 L74.829,37.277 L74.631,37.292 L74.425,37.315 L74.214,37.353 L74.001,37.413 L73.789,37.497 L73.576,37.604 L73.363,37.739 L73.158,37.907 L72.96,38.104 L72.77,38.347 L72.59,38.628 L72.422,38.961 L72.263,39.341 L72.118,39.768 L71.998,40.253 L71.95,40.525 L71.921,40.791 L71.906,41.057 L71.915,41.315 L71.935,41.573 L71.988,41.816 L72.057,42.044 L72.141,42.271 L72.255,42.477 L72.391,42.673 L72.552,42.848 L72.733,43.008 L72.938,43.145 L73.173,43.258 L73.432,43.357 L73.72,43.425 L73.819,43.447 L73.934,43.47 L74.07,43.486 L74.222,43.502 L74.387,43.517 L74.752,43.517 L74.942,43.502 L75.139,43.477 L75.337,43.44 L75.526,43.387 L75.716,43.327 L75.906,43.243 L76.08,43.145 L76.239,43.023 L76.392,42.887 L76.051,44.914 L76.004,44.951 L75.96,44.997 L75.899,45.051 L75.831,45.094 L75.748,45.155 L75.641,45.209 L75.519,45.262 L75.383,45.307 L75.208,45.361 L75.01,45.399 L74.783,45.43 L74.517,45.46 L74.222,45.475 L73.879,45.483 L73.493,45.475 L73.067,45.452 L72.718,45.414 L72.369,45.338 L72.02,45.225 L71.671,45.072 L71.336,44.891 L71.017,44.662 L70.714,44.397 L70.433,44.094 L70.182,43.752 L69.97,43.373 L69.788,42.948 L69.652,42.484 L69.561,41.976 L69.53,41.437 L69.545,40.845 L69.628,40.214 L69.69,39.904 L69.757,39.6 L69.833,39.304 L69.91,39.023 L69.992,38.757 L70.091,38.492 L70.19,38.241 L70.296,38.006 L70.412,37.771 L70.524,37.55 L70.653,37.338 L70.789,37.141 L70.927,36.95 L71.078,36.769 L71.229,36.602 L71.39,36.442 L71.563,36.29 L71.739,36.146 L71.921,36.017 L72.111,35.895 L72.316,35.781 L72.521,35.684 L72.733,35.592 L72.954,35.508 L73.19,35.432 L73.423,35.372 L73.667,35.318 L73.926,35.273 L74.183,35.234 L74.456,35.205 L74.729,35.19 L75.018,35.181 L75.263,35.19 L75.496,35.205 L75.724,35.227 L75.951,35.258 L76.165,35.288 L76.369,35.333 L76.566,35.372 L76.749,35.417 L76.923,35.462 L77.076,35.508 L77.22,35.554 L77.34,35.599 L77.447,35.637 L77.538,35.668 L77.606,35.698 L77.653,35.714 L77.272,37.816" id="Stroke-37" stroke="#FFFFFF" stroke-width="0.216"></path>
                        <path d="M95.96,45.49 L93.858,45.49 L94.01,44.648 L94.01,44.571 L93.888,44.724 L93.759,44.859 L93.631,44.981 L93.494,45.088 L93.357,45.187 L93.221,45.269 L93.084,45.338 L92.94,45.407 L92.796,45.46 L92.651,45.498 L92.507,45.535 L92.354,45.557 L92.204,45.581 L92.06,45.596 L91.908,45.604 L91.757,45.604 L91.362,45.573 L90.997,45.49 L90.663,45.361 L90.359,45.187 L90.086,44.966 L89.843,44.709 L89.63,44.427 L89.448,44.109 L89.297,43.766 L89.175,43.411 L89.092,43.039 L89.031,42.651 L89.008,42.264 L89.015,41.87 L89.053,41.482 L89.122,41.096 L89.235,40.646 L89.372,40.222 L89.532,39.835 L89.721,39.471 L89.918,39.129 L90.146,38.825 L90.381,38.553 L90.632,38.302 L90.898,38.081 L91.179,37.892 L91.468,37.725 L91.757,37.596 L92.06,37.489 L92.363,37.421 L92.665,37.376 L92.977,37.361 L93.198,37.367 L93.411,37.391 L93.608,37.429 L93.79,37.482 L93.965,37.544 L94.117,37.61 L94.269,37.695 L94.405,37.778 L94.526,37.868 L94.64,37.968 L94.739,38.066 L94.83,38.165 L94.906,38.264 L94.975,38.362 L95.036,38.454 L95.08,38.545 L95.613,35.561 L97.676,35.561 L95.96,45.49" id="Fill-38" fill="#FFFFFF"></path>
                        <path d="M95.96,45.49 L93.858,45.49 L94.01,44.648 L94.01,44.571 L93.888,44.724 L93.759,44.859 L93.631,44.981 L93.494,45.088 L93.357,45.187 L93.221,45.269 L93.084,45.338 L92.94,45.407 L92.796,45.46 L92.651,45.498 L92.507,45.535 L92.354,45.557 L92.204,45.581 L92.06,45.596 L91.908,45.604 L91.757,45.604 L91.362,45.573 L90.997,45.49 L90.663,45.361 L90.359,45.187 L90.086,44.966 L89.843,44.709 L89.63,44.427 L89.448,44.109 L89.297,43.766 L89.175,43.411 L89.092,43.039 L89.031,42.651 L89.008,42.264 L89.015,41.87 L89.053,41.482 L89.122,41.096 L89.235,40.646 L89.372,40.222 L89.532,39.835 L89.721,39.471 L89.918,39.129 L90.146,38.825 L90.381,38.553 L90.632,38.302 L90.898,38.081 L91.179,37.892 L91.468,37.725 L91.757,37.596 L92.06,37.489 L92.363,37.421 L92.665,37.376 L92.977,37.361 L93.198,37.367 L93.411,37.391 L93.608,37.429 L93.79,37.482 L93.965,37.544 L94.117,37.61 L94.269,37.695 L94.405,37.778 L94.526,37.868 L94.64,37.968 L94.739,38.066 L94.83,38.165 L94.906,38.264 L94.975,38.362 L95.036,38.454 L95.08,38.545 L95.613,35.561 L97.676,35.561 L95.96,45.49" id="Stroke-39" stroke="#FFFFFF" stroke-width="0.216"></path>
                        <path d="M92.522,43.653 L92.734,43.638 L92.932,43.593 L93.115,43.54 L93.29,43.456 L93.449,43.366 L93.6,43.25 L93.745,43.123 L93.874,42.984 L93.987,42.833 L94.094,42.666 L94.192,42.491 L94.276,42.31 L94.352,42.119 L94.413,41.922 L94.465,41.717 L94.504,41.513 L94.541,41.301 L94.565,41.081 L94.565,40.874 L94.558,40.663 L94.534,40.465 L94.504,40.275 L94.451,40.093 L94.39,39.919 L94.314,39.768 L94.223,39.623 L94.125,39.5 L94.01,39.395 L93.881,39.304 L93.745,39.243 L93.6,39.205 L93.442,39.189 L93.235,39.205 L93.046,39.235 L92.871,39.296 L92.697,39.372 L92.545,39.471 L92.393,39.592 L92.264,39.721 L92.135,39.866 L92.021,40.031 L91.915,40.207 L91.815,40.389 L91.732,40.586 L91.657,40.791 L91.597,40.997 L91.536,41.216 L91.491,41.437 L91.451,41.771 L91.468,42.135 L91.52,42.506 L91.62,42.863 L91.771,43.175 L91.968,43.425 L92.218,43.593 L92.522,43.653" id="Fill-40" fill="#FBB231"></path>
                        <path d="M45.908,43.805 L45.603,45.49 L43.69,45.49 L43.744,45.179 L43.783,44.898 L43.811,44.686 L43.843,44.571 L43.737,44.693 L43.615,44.815 L43.471,44.929 L43.311,45.034 L43.129,45.141 L42.94,45.231 L42.741,45.323 L42.537,45.399 L42.315,45.467 L42.097,45.521 L41.876,45.566 L41.649,45.596 L41.429,45.612 L41.21,45.619 L40.996,45.596 L40.79,45.566 L40.525,45.498 L40.282,45.421 L40.07,45.323 L39.88,45.209 L39.714,45.088 L39.562,44.951 L39.44,44.806 L39.333,44.655 L39.243,44.496 L39.167,44.328 L39.106,44.162 L39.06,43.995 L39.03,43.82 L39.007,43.645 L38.992,43.477 L38.992,43.311 L39.014,43.015 L39.06,42.734 L39.137,42.469 L39.235,42.21 L39.356,41.968 L39.493,41.748 L39.652,41.536 L39.835,41.345 L40.025,41.171 L40.237,41.011 L40.458,40.867 L40.685,40.745 L40.927,40.641 L41.179,40.556 L41.436,40.488 L41.703,40.442 L41.717,40.442 L41.755,40.434 L41.809,40.427 L41.892,40.419 L41.983,40.404 L42.089,40.396 L42.202,40.381 L42.332,40.366 L42.461,40.352 L42.591,40.336 L42.728,40.328 L42.848,40.313 L42.971,40.306 L43.083,40.297 L43.19,40.291 L43.449,40.291 L43.631,40.297 L43.797,40.306 L43.964,40.306 L44.101,40.313 L44.207,40.32 L44.282,40.328 L44.305,40.328 L44.321,40.275 L44.366,40.139 L44.403,39.979 L44.419,39.835 L44.389,39.668 L44.321,39.515 L44.229,39.379 L44.107,39.265 L43.964,39.168 L43.805,39.099 L43.622,39.053 L43.425,39.038 L43.213,39.03 L42.984,39.023 L42.749,39.023 L42.507,39.03 L42.256,39.046 L42.013,39.068 L41.771,39.091 L41.536,39.122 L41.307,39.151 L41.086,39.189 L40.89,39.227 L40.708,39.265 L40.541,39.312 L40.403,39.356 L40.298,39.41 L40.213,39.455 L40.753,37.626 L40.92,37.558 L41.086,37.497 L41.27,37.444 L41.451,37.405 L41.635,37.367 L41.831,37.338 L42.028,37.307 L42.233,37.292 L42.445,37.277 L42.666,37.269 L42.894,37.261 L43.622,37.261 L43.888,37.269 L44.154,37.277 L44.366,37.292 L44.595,37.33 L44.829,37.383 L45.072,37.452 L45.308,37.544 L45.536,37.649 L45.763,37.778 L45.977,37.922 L46.164,38.09 L46.333,38.271 L46.485,38.476 L46.598,38.704 L46.674,38.948 L46.719,39.205 L46.719,39.493 L46.674,39.797 L45.908,43.805" id="Fill-41" fill="#FFFFFF"></path>
                        <path d="M45.908,43.805 L45.603,45.49 L43.69,45.49 L43.744,45.179 L43.783,44.898 L43.811,44.686 L43.843,44.571 L43.737,44.693 L43.615,44.815 L43.471,44.929 L43.311,45.034 L43.129,45.141 L42.94,45.231 L42.741,45.323 L42.537,45.399 L42.315,45.467 L42.097,45.521 L41.876,45.566 L41.649,45.596 L41.429,45.612 L41.21,45.619 L40.996,45.596 L40.79,45.566 L40.525,45.498 L40.282,45.421 L40.07,45.323 L39.88,45.209 L39.714,45.088 L39.562,44.951 L39.44,44.806 L39.333,44.655 L39.243,44.496 L39.167,44.328 L39.106,44.162 L39.06,43.995 L39.03,43.82 L39.007,43.645 L38.992,43.477 L38.992,43.311 L39.014,43.015 L39.06,42.734 L39.137,42.469 L39.235,42.21 L39.356,41.968 L39.493,41.748 L39.652,41.536 L39.835,41.345 L40.025,41.171 L40.237,41.011 L40.458,40.867 L40.685,40.745 L40.927,40.641 L41.179,40.556 L41.436,40.488 L41.703,40.442 L41.717,40.442 L41.755,40.434 L41.809,40.427 L41.892,40.419 L41.983,40.404 L42.089,40.396 L42.202,40.381 L42.332,40.366 L42.461,40.352 L42.591,40.336 L42.728,40.328 L42.848,40.313 L42.971,40.306 L43.083,40.297 L43.19,40.291 L43.449,40.291 L43.631,40.297 L43.797,40.306 L43.964,40.306 L44.101,40.313 L44.207,40.32 L44.282,40.328 L44.305,40.328 L44.321,40.275 L44.366,40.139 L44.403,39.979 L44.419,39.835 L44.389,39.668 L44.321,39.515 L44.229,39.379 L44.107,39.265 L43.964,39.168 L43.805,39.099 L43.622,39.053 L43.425,39.038 L43.213,39.03 L42.984,39.023 L42.749,39.023 L42.507,39.03 L42.256,39.046 L42.013,39.068 L41.771,39.091 L41.536,39.122 L41.307,39.151 L41.086,39.189 L40.89,39.227 L40.708,39.265 L40.541,39.312 L40.403,39.356 L40.298,39.41 L40.213,39.455 L40.753,37.626 L40.92,37.558 L41.086,37.497 L41.27,37.444 L41.451,37.405 L41.635,37.367 L41.831,37.338 L42.028,37.307 L42.233,37.292 L42.445,37.277 L42.666,37.269 L42.894,37.261 L43.622,37.261 L43.888,37.269 L44.154,37.277 L44.366,37.292 L44.595,37.33 L44.829,37.383 L45.072,37.452 L45.308,37.544 L45.536,37.649 L45.763,37.778 L45.977,37.922 L46.164,38.09 L46.333,38.271 L46.485,38.476 L46.598,38.704 L46.674,38.948 L46.719,39.205 L46.719,39.493 L46.674,39.797 L45.908,43.805" id="Stroke-42" stroke="#FFFFFF" stroke-width="0.216"></path>
                        <path d="M44.078,41.823 L44.07,41.786 L44.04,41.748 L43.994,41.725 L43.919,41.71 L43.835,41.695 L43.737,41.687 L43.508,41.687 L43.388,41.695 L43.259,41.71 L43.137,41.725 L43.015,41.741 L42.901,41.756 L42.795,41.778 L42.705,41.801 L42.62,41.823 L42.568,41.838 L42.507,41.862 L42.423,41.892 L42.339,41.93 L42.241,41.976 L42.142,42.029 L42.036,42.081 L41.937,42.143 L41.831,42.218 L41.732,42.294 L41.641,42.386 L41.558,42.477 L41.481,42.575 L41.429,42.682 L41.384,42.803 L41.36,42.924 L41.353,43.183 L41.39,43.387 L41.467,43.54 L41.565,43.653 L41.679,43.729 L41.809,43.774 L41.931,43.797 L42.052,43.805 L42.279,43.797 L42.484,43.774 L42.682,43.743 L42.857,43.698 L43.007,43.645 L43.152,43.578 L43.281,43.509 L43.396,43.425 L43.494,43.349 L43.583,43.258 L43.66,43.175 L43.721,43.084 L43.773,42.993 L43.821,42.902 L43.858,42.818 L43.879,42.734 L43.941,42.515 L43.994,42.264 L44.04,42.021 L44.078,41.823" id="Fill-43" fill="#EC1C2E"></path>
                        <path d="M29.935,45.49 L27.872,45.49 L29.595,35.524 L33.185,35.524 L33.527,41.437 L36.01,35.524 L39.759,35.524 L37.998,45.49 L35.933,45.49 L37.239,38.044 L37.156,38.044 L34.065,45.49 L31.736,45.49 L31.721,45.179 L31.668,44.351 L31.6,43.175 L31.378,39.274 L31.325,38.409 L31.31,38.044 L31.197,38.044 L29.935,45.49" id="Fill-44" fill="#FFFFFF"></path>
                        <path d="M29.935,45.49 L27.872,45.49 L29.595,35.524 L33.185,35.524 L33.527,41.437 L36.01,35.524 L39.759,35.524 L37.998,45.49 L35.933,45.49 L37.239,38.044 L37.156,38.044 L34.065,45.49 L31.736,45.49 L31.721,45.179 L31.668,44.351 L31.6,43.175 L31.378,39.274 L31.325,38.409 L31.31,38.044 L31.197,38.044 L29.935,45.49" id="Stroke-45" stroke="#FFFFFF" stroke-width="0.216"></path>
                        <path d="M83.582,43.805 L83.27,45.49 L81.364,45.49 L81.379,45.179 L81.387,44.906 L81.387,44.701 L81.401,44.61 L81.304,44.724 L81.189,44.837 L81.053,44.943 L80.901,45.051 L80.743,45.148 L80.56,45.239 L80.369,45.331 L80.18,45.407 L79.975,45.467 L79.762,45.527 L79.55,45.566 L79.338,45.596 L79.117,45.612 L78.905,45.619 L78.7,45.596 L78.494,45.566 L78.221,45.498 L77.979,45.421 L77.766,45.323 L77.567,45.209 L77.401,45.088 L77.257,44.951 L77.136,44.806 L77.03,44.655 L76.939,44.496 L76.87,44.328 L76.81,44.162 L76.772,43.995 L76.74,43.82 L76.719,43.645 L76.702,43.477 L76.702,43.311 L76.719,43.015 L76.764,42.734 L76.832,42.469 L76.931,42.21 L77.044,41.968 L77.189,41.748 L77.348,41.536 L77.523,41.345 L77.721,41.171 L77.925,41.011 L78.146,40.867 L78.381,40.745 L78.616,40.641 L78.866,40.556 L79.117,40.488 L79.375,40.442 L79.391,40.442 L79.427,40.434 L79.481,40.427 L79.557,40.419 L79.656,40.404 L79.762,40.396 L79.876,40.381 L79.997,40.366 L80.127,40.352 L80.264,40.336 L80.393,40.328 L80.522,40.313 L80.643,40.306 L80.749,40.297 L80.855,40.291 L81.121,40.291 L81.304,40.297 L81.478,40.306 L81.645,40.306 L81.79,40.313 L81.911,40.32 L81.978,40.328 L82.01,40.328 L82.025,40.275 L82.048,40.139 L82.07,39.979 L82.085,39.835 L82.055,39.668 L81.995,39.515 L81.896,39.379 L81.781,39.265 L81.645,39.168 L81.486,39.099 L81.319,39.053 L81.136,39.038 L80.923,39.03 L80.696,39.023 L80.46,39.023 L80.217,39.03 L79.968,39.046 L79.724,39.068 L79.481,39.091 L79.246,39.122 L79.018,39.151 L78.799,39.189 L78.601,39.227 L78.419,39.265 L78.251,39.312 L78.116,39.356 L78.008,39.41 L77.925,39.455 L78.457,37.626 L78.623,37.558 L78.799,37.497 L78.973,37.444 L79.154,37.405 L79.345,37.367 L79.535,37.338 L79.731,37.307 L79.937,37.292 L80.149,37.277 L80.369,37.269 L80.589,37.261 L81.304,37.261 L81.561,37.269 L81.819,37.277 L82.032,37.292 L82.26,37.33 L82.495,37.383 L82.738,37.452 L82.974,37.544 L83.208,37.649 L83.435,37.778 L83.648,37.922 L83.839,38.09 L84.013,38.271 L84.164,38.476 L84.279,38.704 L84.362,38.948 L84.417,39.205 L84.417,39.493 L84.378,39.797 L83.582,43.805" id="Fill-46" fill="#FFFFFF"></path>
                        <path d="M83.27,45.544 L83.315,45.498 L83.626,43.812 L83.535,43.797 L83.224,45.483 L83.27,45.437 L83.27,45.544 L83.307,45.535 L83.315,45.498 L83.27,45.544" id="Fill-47" fill="#FFFFFF"></path>
                        <path d="M81.319,45.49 L81.364,45.544 L83.27,45.544 L83.27,45.437 L81.364,45.437 L81.41,45.49 L81.319,45.49 L81.311,45.544 L81.364,45.544 L81.319,45.49" id="Fill-48" fill="#FFFFFF"></path>
                        <path d="M81.44,44.639 L81.371,44.579 L81.341,44.701 L81.332,44.906 L81.332,45.179 L81.319,45.49 L81.41,45.49 L81.425,45.179 L81.44,44.906 L81.433,44.701 L81.433,44.639 L81.364,44.579 L81.44,44.639" id="Fill-49" fill="#FFFFFF"></path>
                        <path d="M78.487,45.612 L78.487,45.612 L78.7,45.642 L78.905,45.664 L79.117,45.658 L79.338,45.642 L79.557,45.612 L79.769,45.573 L79.983,45.514 L80.194,45.452 L80.385,45.376 L80.582,45.286 L80.765,45.195 L80.923,45.088 L81.083,44.981 L81.219,44.876 L81.341,44.753 L81.44,44.639 L81.364,44.579 L81.266,44.693 L81.159,44.799 L81.022,44.906 L80.878,45.012 L80.719,45.103 L80.537,45.195 L80.354,45.286 L80.165,45.361 L79.968,45.421 L79.755,45.483 L79.542,45.521 L79.338,45.55 L79.117,45.566 L78.905,45.573 L78.7,45.55 L78.503,45.521 L78.487,45.612" id="Fill-50" fill="#FFFFFF"></path>
                        <path d="M76.65,43.311 L76.65,43.311 L76.657,43.477 L76.673,43.645 L76.696,43.828 L76.727,44.002 L76.764,44.169 L76.825,44.344 L76.893,44.518 L76.992,44.678 L77.098,44.837 L77.22,44.981 L77.372,45.125 L77.546,45.247 L77.743,45.369 L77.964,45.467 L78.213,45.544 L78.487,45.612 L78.503,45.521 L78.229,45.452 L77.994,45.376 L77.789,45.278 L77.591,45.171 L77.432,45.051 L77.295,44.92 L77.174,44.776 L77.067,44.632 L76.984,44.473 L76.917,44.313 L76.854,44.155 L76.817,43.987 L76.788,43.812 L76.764,43.645 L76.749,43.477 L76.756,43.311 L76.65,43.311" id="Fill-51" fill="#FFFFFF"></path>
                        <path d="M79.375,40.396 L79.375,40.396 L79.11,40.442 L78.852,40.511 L78.601,40.594 L78.358,40.7 L78.122,40.821 L77.896,40.974 L77.69,41.134 L77.493,41.315 L77.31,41.505 L77.15,41.717 L76.999,41.945 L76.885,42.196 L76.788,42.454 L76.719,42.727 L76.673,43.015 L76.65,43.311 L76.756,43.311 L76.764,43.015 L76.81,42.742 L76.878,42.484 L76.977,42.226 L77.09,41.99 L77.226,41.778 L77.387,41.565 L77.553,41.376 L77.75,41.209 L77.956,41.049 L78.167,40.913 L78.405,40.791 L78.631,40.685 L78.882,40.602 L79.125,40.533 L79.375,40.488 L79.375,40.396" id="Fill-52" fill="#FFFFFF"></path>
                        <path d="M80.938,40.237 L80.855,40.237 L80.749,40.253 L80.643,40.262 L80.522,40.268 L80.393,40.282 L80.264,40.291 L80.127,40.306 L79.997,40.32 L79.876,40.336 L79.762,40.352 L79.656,40.358 L79.557,40.375 L79.481,40.381 L79.42,40.389 L79.391,40.396 L79.375,40.396 L79.375,40.488 L79.391,40.488 L79.436,40.479 L79.481,40.473 L79.557,40.465 L79.656,40.45 L79.762,40.442 L79.876,40.427 L79.997,40.411 L80.127,40.396 L80.264,40.381 L80.393,40.375 L80.522,40.358 L80.643,40.352 L80.749,40.343 L80.938,40.343 L80.938,40.237" id="Fill-53" fill="#FFFFFF"></path>
                        <path d="M81.964,40.32 L82.01,40.282 L81.978,40.282 L81.911,40.275 L81.79,40.268 L81.645,40.253 L81.304,40.253 L81.121,40.237 L80.938,40.237 L80.938,40.343 L81.304,40.343 L81.478,40.358 L81.79,40.358 L81.911,40.366 L81.978,40.375 L82.01,40.375 L82.055,40.336 L82.01,40.375 L82.048,40.381 L82.055,40.336 L81.964,40.32" id="Fill-54" fill="#FFFFFF"></path>
                        <path d="M82.04,39.835 L82.032,39.835 L82.025,39.979 L82.001,40.131 L81.978,40.268 L81.964,40.32 L82.055,40.336 L82.07,40.282 L82.092,40.145 L82.114,39.979 L82.138,39.835 L82.04,39.835" id="Fill-55" fill="#FFFFFF"></path>
                        <path d="M81.136,39.083 L81.136,39.091 L81.311,39.099 L81.47,39.144 L81.622,39.212 L81.751,39.304 L81.856,39.41 L81.948,39.539 L82.01,39.675 L82.04,39.835 L82.131,39.835 L82.1,39.661 L82.04,39.493 L81.933,39.35 L81.812,39.227 L81.668,39.122 L81.5,39.053 L81.326,39.008 L81.136,38.985 L81.136,39.083" id="Fill-56" fill="#FFFFFF"></path>
                        <path d="M77.88,39.448 L77.956,39.493 L78.031,39.455 L78.13,39.402 L78.26,39.356 L78.426,39.312 L78.609,39.274 L78.805,39.235 L79.025,39.197 L79.246,39.168 L79.481,39.136 L79.724,39.113 L79.968,39.091 L80.217,39.076 L80.923,39.076 L81.136,39.083 L81.136,38.992 L80.923,38.985 L80.696,38.969 L80.46,38.969 L80.217,38.985 L79.968,39 L79.724,39.023 L79.481,39.046 L79.246,39.076 L79.011,39.106 L78.79,39.144 L78.594,39.183 L78.411,39.221 L78.244,39.265 L78.1,39.312 L77.986,39.364 L77.896,39.417 L77.971,39.463 L77.88,39.448" id="Fill-57" fill="#FFFFFF"></path>
                        <path d="M78.442,37.58 L78.411,37.619 L77.88,39.448 L77.971,39.463 L78.503,37.633 L78.472,37.672 L78.442,37.58 L78.419,37.588 L78.411,37.619 L78.442,37.58" id="Fill-58" fill="#FFFFFF"></path>
                        <path d="M81.819,37.232 L81.819,37.232 L81.561,37.217 L81.304,37.208 L80.589,37.208 L80.369,37.224 L80.149,37.232 L79.937,37.248 L79.731,37.261 L79.526,37.292 L79.338,37.322 L79.148,37.361 L78.964,37.399 L78.783,37.452 L78.609,37.512 L78.442,37.58 L78.472,37.672 L78.64,37.604 L78.813,37.544 L78.98,37.489 L79.163,37.452 L79.353,37.413 L79.542,37.383 L79.731,37.353 L79.937,37.338 L80.149,37.322 L80.369,37.315 L81.304,37.315 L81.561,37.322 L81.819,37.322 L81.819,37.232" id="Fill-59" fill="#FFFFFF"></path>
                        <path d="M84.423,39.805 L84.423,39.805 L84.461,39.493 L84.461,39.205 L84.409,38.939 L84.324,38.688 L84.203,38.454 L84.05,38.241 L83.868,38.052 L83.679,37.884 L83.459,37.739 L83.231,37.604 L82.988,37.497 L82.753,37.405 L82.503,37.338 L82.267,37.285 L82.032,37.248 L81.819,37.232 L81.819,37.322 L82.032,37.338 L82.252,37.376 L82.487,37.429 L82.722,37.497 L82.958,37.588 L83.185,37.695 L83.414,37.816 L83.618,37.96 L83.809,38.126 L83.975,38.302 L84.126,38.498 L84.232,38.72 L84.316,38.955 L84.37,39.205 L84.37,39.493 L84.332,39.79 L84.423,39.805" id="Fill-60" fill="#FFFFFF"></path>
                        <path d="M83.626,43.812 L83.626,43.812 L84.423,39.805 L84.332,39.79 L83.535,43.797 L83.626,43.812" id="Fill-61" fill="#FFFFFF"></path>
                        <path d="M81.743,41.823 L81.728,41.778 L81.699,41.741 L81.645,41.717 L81.569,41.695 L81.486,41.687 L81.387,41.679 L81.272,41.679 L81.159,41.687 L81.038,41.702 L80.916,41.717 L80.795,41.733 L80.68,41.748 L80.568,41.771 L80.468,41.786 L80.369,41.809 L80.293,41.823 L80.241,41.831 L80.18,41.854 L80.104,41.877 L80.02,41.907 L79.921,41.952 L79.831,41.999 L79.724,42.052 L79.626,42.119 L79.526,42.188 L79.427,42.271 L79.345,42.354 L79.261,42.454 L79.192,42.56 L79.139,42.673 L79.095,42.795 L79.072,42.924 L79.065,43.183 L79.1,43.387 L79.163,43.54 L79.253,43.653 L79.367,43.729 L79.497,43.774 L79.626,43.797 L79.755,43.805 L79.983,43.797 L80.194,43.774 L80.393,43.736 L80.568,43.684 L80.734,43.623 L80.878,43.555 L81.015,43.477 L81.136,43.387 L81.243,43.304 L81.332,43.206 L81.417,43.114 L81.486,43.015 L81.538,42.924 L81.577,42.833 L81.607,42.742 L81.629,42.659 L81.66,42.446 L81.699,42.226 L81.728,42.014 L81.743,41.823" id="Fill-62" fill="#FBB231"></path>
                        <path d="M97.379,44.451 L97.397,44.275 L97.455,44.07 L97.562,43.888 L97.691,43.729 L97.851,43.601 L98.034,43.509 L98.231,43.447 L98.443,43.425 L98.656,43.447 L98.853,43.509 L99.036,43.601 L99.196,43.729 L99.325,43.888 L99.431,44.07 L99.491,44.275 L99.507,44.451 L99.278,44.451 L99.272,44.313 L99.225,44.146 L99.149,43.995 L99.05,43.865 L98.93,43.759 L98.785,43.684 L98.618,43.63 L98.443,43.615 L98.269,43.63 L98.103,43.684 L97.958,43.759 L97.835,43.865 L97.737,43.995 L97.662,44.146 L97.616,44.313 L97.601,44.451 L97.379,44.451" id="Fill-63" fill="#FFFFFF"></path>
                        <path d="M98.064,44.451 L98.064,43.995 L98.48,43.995 L98.573,44.002 L98.656,44.017 L98.716,44.04 L98.77,44.07 L98.808,44.116 L98.838,44.162 L98.853,44.214 L98.861,44.268 L98.853,44.336 L98.838,44.389 L98.815,44.435 L98.8,44.451 L98.48,44.451 L98.511,44.442 L98.565,44.435 L98.61,44.42 L98.648,44.405 L98.679,44.382 L98.694,44.358 L98.708,44.322 L98.708,44.268 L98.701,44.23 L98.685,44.199 L98.664,44.185 L98.641,44.169 L98.602,44.162 L98.565,44.155 L98.254,44.155 L98.254,44.451 L98.064,44.451" id="Fill-64" fill="#FFFFFF"></path>
                        <path d="M97.379,44.451 L97.374,44.496 L97.397,44.716 L97.455,44.92 L97.562,45.103 L97.691,45.255 L97.851,45.383 L98.034,45.483 L98.231,45.544 L98.443,45.566 L98.656,45.544 L98.853,45.483 L99.036,45.383 L99.196,45.255 L99.325,45.103 L99.431,44.92 L99.491,44.716 L99.513,44.496 L99.507,44.451 L99.278,44.451 L99.286,44.496 L99.272,44.678 L99.225,44.845 L99.149,44.99 L99.05,45.117 L98.93,45.225 L98.785,45.307 L98.618,45.361 L98.443,45.376 L98.269,45.361 L98.103,45.307 L97.958,45.225 L97.835,45.117 L97.737,44.99 L97.662,44.845 L97.616,44.678 L97.601,44.496 L97.601,44.451 L97.379,44.451" id="Fill-65" fill="#FFFFFF"></path>
                        <path d="M98.064,44.451 L98.064,44.914 L98.254,44.914 L98.254,44.534 L98.443,44.534 L98.67,44.914 L98.823,44.914 L98.595,44.534 L98.648,44.534 L98.701,44.518 L98.747,44.503 L98.785,44.473 L98.8,44.451 L98.48,44.451 L98.443,44.458 L98.254,44.458 L98.254,44.451 L98.064,44.451" id="Fill-66" fill="#FFFFFF"></path>
                        <path d="M97.374,44.496 L97.374,44.496 L97.397,44.275 L97.455,44.07 L97.562,43.888 L97.691,43.729 L97.851,43.601 L98.034,43.509 L98.231,43.447 L98.443,43.425 L98.656,43.447 L98.853,43.509 L99.036,43.601 L99.196,43.729 L99.325,43.888 L99.431,44.07 L99.491,44.275 L99.513,44.496 L99.491,44.716 L99.431,44.92 L99.325,45.103 L99.196,45.255 L99.036,45.383 L98.853,45.483 L98.656,45.544 L98.443,45.566 L98.231,45.544 L98.034,45.483 L97.851,45.383 L97.691,45.255 L97.562,45.103 L97.455,44.92 L97.397,44.716 L97.374,44.496 M98.254,44.914 L98.064,44.914 L98.064,43.995 L98.48,43.995 L98.573,44.002 L98.656,44.017 L98.716,44.04 L98.77,44.07 L98.808,44.116 L98.838,44.162 L98.853,44.214 L98.861,44.268 L98.853,44.336 L98.838,44.389 L98.815,44.435 L98.785,44.473 L98.747,44.503 L98.701,44.518 L98.648,44.534 L98.595,44.534 L98.823,44.914 L98.67,44.914 L98.443,44.534 L98.254,44.534 L98.254,44.914 M98.443,44.458 L98.443,44.458 L98.511,44.442 L98.565,44.435 L98.61,44.42 L98.648,44.405 L98.679,44.382 L98.694,44.358 L98.708,44.322 L98.708,44.268 L98.701,44.23 L98.685,44.199 L98.664,44.185 L98.641,44.169 L98.602,44.162 L98.565,44.155 L98.254,44.155 L98.254,44.458 L98.443,44.458 M98.443,45.376 L98.443,45.376 L98.618,45.361 L98.785,45.307 L98.93,45.225 L99.05,45.117 L99.149,44.99 L99.225,44.845 L99.272,44.678 L99.286,44.496 L99.272,44.313 L99.225,44.146 L99.149,43.995 L99.05,43.865 L98.93,43.759 L98.785,43.684 L98.618,43.63 L98.443,43.615 L98.269,43.63 L98.103,43.684 L97.958,43.759 L97.835,43.865 L97.737,43.995 L97.662,44.146 L97.616,44.313 L97.601,44.496 L97.616,44.678 L97.662,44.845 L97.737,44.99 L97.835,45.117 L97.958,45.225 L98.103,45.307 L98.269,45.361 L98.443,45.376" id="Stroke-67" stroke="#FFFFFF" stroke-width="0.216"></path>
                        <path d="M84.151,45.49 L86.292,45.49 L87.058,41.171 L87.087,41.005 L87.134,40.837 L87.179,40.67 L87.24,40.503 L87.315,40.336 L87.406,40.176 L87.505,40.025 L87.627,39.88 L87.764,39.752 L87.915,39.63 L88.09,39.515 L88.287,39.424 L88.507,39.35 L88.75,39.289 L89.015,39.243 L89.311,39.227 L89.501,39.227 L89.843,37.277 L89.63,37.292 L89.425,37.315 L89.235,37.353 L89.053,37.405 L88.886,37.466 L88.727,37.544 L88.575,37.626 L88.43,37.717 L88.295,37.824 L88.165,37.93 L88.044,38.052 L87.923,38.172 L87.808,38.302 L87.695,38.445 L87.581,38.582 L87.476,38.734 L87.703,37.361 L85.569,37.361 L84.151,45.49" id="Fill-68" fill="#FFFFFF"></path>
                        <path d="M84.151,45.49 L86.292,45.49 L87.058,41.171 L87.087,41.005 L87.134,40.837 L87.179,40.67 L87.24,40.503 L87.315,40.336 L87.406,40.176 L87.505,40.025 L87.627,39.88 L87.764,39.752 L87.915,39.63 L88.09,39.515 L88.287,39.424 L88.507,39.35 L88.75,39.289 L89.015,39.243 L89.311,39.227 L89.501,39.227 L89.843,37.277 L89.63,37.292 L89.425,37.315 L89.235,37.353 L89.053,37.405 L88.886,37.466 L88.727,37.544 L88.575,37.626 L88.43,37.717 L88.295,37.824 L88.165,37.93 L88.044,38.052 L87.923,38.172 L87.808,38.302 L87.695,38.445 L87.581,38.582 L87.476,38.734 L87.703,37.361 L85.569,37.361 L84.151,45.49" id="Stroke-69" stroke="#FFFFFF" stroke-width="0.216"></path>
                        <path d="M64.05,45.49 L66.228,45.49 L66.957,41.171 L66.987,41.005 L67.025,40.845 L67.062,40.685 L67.116,40.533 L67.176,40.381 L67.253,40.237 L67.343,40.101 L67.45,39.972 L67.571,39.856 L67.708,39.744 L67.876,39.652 L68.057,39.569 L68.27,39.5 L68.505,39.441 L68.764,39.402 L69.059,39.379 L69.082,39.379 L69.113,39.387 L69.15,39.395 L69.189,39.395 L69.226,39.402 L69.257,39.41 L69.278,39.417 L69.287,39.417 L69.295,39.387 L69.317,39.296 L69.348,39.16 L69.386,38.992 L69.439,38.795 L69.492,38.582 L69.561,38.37 L69.628,38.156 L69.69,38.013 L69.766,37.868 L69.841,37.725 L69.917,37.596 L69.985,37.482 L70.038,37.391 L70.076,37.338 L70.091,37.315 L70.085,37.315 L70.054,37.307 L70.017,37.299 L69.962,37.292 L69.91,37.292 L69.849,37.285 L69.796,37.277 L69.742,37.277 L69.507,37.292 L69.295,37.315 L69.097,37.353 L68.916,37.399 L68.741,37.459 L68.581,37.536 L68.436,37.61 L68.3,37.701 L68.172,37.801 L68.049,37.915 L67.936,38.029 L67.822,38.156 L67.708,38.287 L67.602,38.432 L67.374,38.734 L67.647,37.361 L65.469,37.361 L64.05,45.49" id="Fill-70" fill="#FFFFFF"></path>
                        <path d="M64.05,45.49 L66.228,45.49 L66.957,41.171 L66.987,41.005 L67.025,40.845 L67.062,40.685 L67.116,40.533 L67.176,40.381 L67.253,40.237 L67.343,40.101 L67.45,39.972 L67.571,39.856 L67.708,39.744 L67.876,39.652 L68.057,39.569 L68.27,39.5 L68.505,39.441 L68.764,39.402 L69.059,39.379 L69.082,39.379 L69.113,39.387 L69.15,39.395 L69.189,39.395 L69.226,39.402 L69.257,39.41 L69.278,39.417 L69.287,39.417 L69.295,39.387 L69.317,39.296 L69.348,39.16 L69.386,38.992 L69.439,38.795 L69.492,38.582 L69.561,38.37 L69.628,38.156 L69.69,38.013 L69.766,37.868 L69.841,37.725 L69.917,37.596 L69.985,37.482 L70.038,37.391 L70.076,37.338 L70.091,37.315 L70.085,37.315 L70.054,37.307 L70.017,37.299 L69.962,37.292 L69.91,37.292 L69.849,37.285 L69.796,37.277 L69.742,37.277 L69.507,37.292 L69.295,37.315 L69.097,37.353 L68.916,37.399 L68.741,37.459 L68.581,37.536 L68.436,37.61 L68.3,37.701 L68.172,37.801 L68.049,37.915 L67.936,38.029 L67.822,38.156 L67.708,38.287 L67.602,38.432 L67.374,38.734 L67.647,37.361 L65.469,37.361 L64.05,45.49" id="Stroke-71" stroke="#FFFFFF" stroke-width="0.216"></path>
                        <path d="M97.397,53.476 L97.397,53.445 L97.455,53.248 L97.562,53.073 L97.691,52.922 L97.851,52.8 L98.034,52.708 L98.231,52.656 L98.443,52.633 L98.656,52.656 L98.853,52.708 L99.036,52.8 L99.196,52.922 L99.325,53.073 L99.431,53.248 L99.491,53.445 L99.491,53.476 L99.272,53.476 L99.225,53.317 L99.149,53.172 L99.05,53.042 L98.93,52.937 L98.785,52.853 L98.618,52.8 L98.443,52.785 L98.269,52.8 L98.103,52.853 L97.958,52.937 L97.835,53.042 L97.737,53.172 L97.662,53.317 L97.616,53.476 L97.397,53.476" id="Fill-72" fill="#FBB231"></path>
                        <path d="M98.064,53.476 L98.064,53.211 L98.573,53.211 L98.656,53.226 L98.716,53.239 L98.77,53.27 L98.808,53.309 L98.838,53.354 L98.853,53.407 L98.861,53.476 L98.708,53.476 L98.708,53.438 L98.701,53.399 L98.685,53.369 L98.664,53.354 L98.641,53.339 L98.602,53.331 L98.565,53.324 L98.254,53.324 L98.254,53.476 L98.064,53.476" id="Fill-73" fill="#FBB231"></path>
                        <path d="M97.374,53.642 L97.397,53.476 L97.616,53.476 L97.616,53.482 L97.601,53.642 L97.374,53.642" id="Fill-74" fill="#FBB231"></path>
                        <path d="M98.064,53.642 L98.064,53.476 L98.254,53.476 L98.254,53.627 L98.443,53.627 L98.511,53.613 L98.565,53.605 L98.61,53.589 L98.648,53.574 L98.679,53.552 L98.694,53.528 L98.708,53.492 L98.708,53.476 L98.861,53.476 L98.853,53.528 L98.838,53.574 L98.815,53.613 L98.785,53.642 L98.064,53.642" id="Fill-75" fill="#FBB231"></path>
                        <path d="M99.286,53.642 L99.272,53.482 L99.272,53.476 L99.491,53.476 L99.513,53.642 L99.286,53.642" id="Fill-76" fill="#FBB231"></path>
                        <path d="M97.374,53.642 L97.374,53.665 L97.397,53.885 L97.455,54.09 L97.562,54.273 L97.691,54.432 L97.851,54.562 L98.034,54.651 L98.231,54.713 L98.443,54.735 L98.656,54.713 L98.853,54.651 L99.036,54.562 L99.196,54.432 L99.325,54.273 L99.431,54.09 L99.491,53.885 L99.513,53.665 L99.513,53.642 L99.286,53.642 L99.286,53.665 L99.272,53.848 L99.225,54.015 L99.149,54.158 L99.05,54.286 L98.93,54.395 L98.785,54.478 L98.618,54.531 L98.443,54.546 L98.269,54.531 L98.103,54.478 L97.958,54.395 L97.835,54.286 L97.737,54.158 L97.662,54.015 L97.616,53.848 L97.601,53.665 L97.601,53.642 L97.374,53.642" id="Fill-77" fill="#FBB231"></path>
                        <path d="M98.064,53.642 L98.064,54.083 L98.254,54.083 L98.254,53.703 L98.443,53.703 L98.67,54.083 L98.823,54.083 L98.595,53.703 L98.648,53.703 L98.701,53.688 L98.747,53.673 L98.785,53.642 L98.064,53.642" id="Fill-78" fill="#FBB231"></path>
                        <path d="M64.285,39.781 L64.224,39.327 L64.117,38.924 L63.966,38.576 L63.776,38.271 L63.549,38.013 L63.299,37.801 L63.025,37.619 L62.728,37.482 L62.426,37.367 L62.114,37.292 L61.803,37.239 L61.491,37.208 L61.195,37.2 L60.579,37.232 L60.034,37.322 L59.54,37.459 L59.1,37.649 L58.721,37.877 L58.386,38.135 L58.09,38.423 L57.848,38.727 L57.635,39.046 L57.46,39.379 L57.325,39.707 L57.21,40.031 L57.127,40.352 L57.065,40.646 L57.021,40.928 L56.991,41.171 L56.952,41.793 L56.976,42.354 L57.059,42.863 L57.186,43.311 L57.37,43.713 L57.59,44.063 L57.848,44.374 L58.144,44.632 L58.462,44.853 L58.805,45.042 L59.161,45.187 L59.533,45.3 L59.912,45.392 L60.293,45.445 L60.671,45.483 L61.043,45.49 L61.293,45.49 L61.53,45.483 L61.734,45.483 L61.932,45.475 L62.106,45.46 L62.266,45.445 L62.417,45.43 L62.554,45.407 L62.683,45.383 L62.804,45.354 L62.926,45.315 L63.04,45.278 L63.153,45.231 L63.275,45.187 L63.395,45.125 L63.518,45.065 L63.821,43.198 L63.602,43.327 L63.389,43.447 L63.17,43.54 L62.956,43.623 L62.751,43.691 L62.539,43.736 L62.333,43.774 L62.129,43.805 L61.924,43.82 L61.727,43.828 L61.522,43.828 L61.324,43.82 L61.127,43.805 L60.93,43.782 L60.739,43.759 L60.543,43.729 L60.39,43.698 L60.239,43.645 L60.087,43.578 L59.95,43.493 L59.814,43.403 L59.691,43.29 L59.578,43.175 L59.472,43.045 L59.381,42.917 L59.299,42.774 L59.237,42.636 L59.184,42.491 L59.153,42.347 L59.139,42.202 L59.144,42.074 L59.163,41.976 L64.087,41.976 L64.125,41.513 L64.24,40.874 L64.293,40.297 L64.285,39.781 L64.285,39.781 Z M62.228,40.479 L59.454,40.479 L59.457,40.473 L59.452,40.472 L59.472,40.366 L59.502,40.207 L59.548,40.055 L59.601,39.904 L59.669,39.768 L59.738,39.638 L59.821,39.515 L59.912,39.402 L60.012,39.296 L60.109,39.205 L60.225,39.122 L60.337,39.053 L60.467,38.992 L60.596,38.948 L60.725,38.917 L60.861,38.894 L61.005,38.886 L61.142,38.901 L61.271,38.924 L61.393,38.955 L61.514,39 L61.628,39.061 L61.742,39.129 L61.842,39.205 L61.932,39.296 L62.007,39.402 L62.084,39.515 L62.137,39.646 L62.19,39.79 L62.219,39.941 L62.234,40.108 L62.243,40.291 L62.228,40.479 L62.228,40.479 Z" id="Fill-79" fill="#FFFFFF"></path>
                    </g>
                </g>
            </g>
        </g>
    </g>
</svg>