<?xml version="1.0" encoding="utf-8"?>
<!-- Generator: Adobe Illustrator 18.0.0, SVG Export Plug-In . SVG Version: 6.00 Build 0)  -->
<!DOCTYPE svg PUBLIC "-//W3C//DTD SVG 1.1//EN" "http://www.w3.org/Graphics/SVG/1.1/DTD/svg11.dtd">
<svg version="1.1" id="Capa_1" xmlns="http://www.w3.org/2000/svg" xmlns:xlink="http://www.w3.org/1999/xlink" x="0px" y="0px"
	 viewBox="0 0 73.2 73.2" enable-background="new 0 0 73.2 73.2" xml:space="preserve">
<g>
	<g id="Navigation">
		<g>
			<path fill="#FFFFFF" d="M4.2,14.4h64.7c2.3,0,4.2-1.9,4.2-4.3c0-2.4-1.9-4.3-4.2-4.3H4.2C1.9,5.8,0,7.7,0,10.1
				C0,12.5,1.9,14.4,4.2,14.4z M68.9,32.3H4.2c-2.3,0-4.2,1.9-4.2,4.3c0,2.4,1.9,4.3,4.2,4.3h64.7c2.3,0,4.2-1.9,4.2-4.3
				C73.2,34.2,71.3,32.3,68.9,32.3z M68.9,58.7H4.2c-2.3,0-4.2,1.9-4.2,4.3c0,2.4,1.9,4.3,4.2,4.3h64.7c2.3,0,4.2-1.9,4.2-4.3
				C73.2,60.7,71.3,58.7,68.9,58.7z"/>
		</g>
	</g>
</g>
</svg>
