<?xml version="1.0" encoding="UTF-8" standalone="no"?>
<svg width="101px" height="103px" viewBox="0 0 101 103" version="1.1" xmlns="http://www.w3.org/2000/svg" xmlns:xlink="http://www.w3.org/1999/xlink" xmlns:sketch="http://www.bohemiancoding.com/sketch/ns">
    <!-- Generator: Sketch 3.3.2 (12043) - http://www.bohemiancoding.com/sketch -->
    <title>ARROW (MORE)</title>
    <desc>Created with Sketch.</desc>
    <defs>
    </defs>
    <g id="Page-1" stroke="none" stroke-width="1" fill="none" fill-rule="evenodd" sketch:type="MSPage">
        <g id="home" sketch:type="MSArtboardGroup" transform="translate(-1322.000000, -1514.000000)">
            <g id="HEADER-+-VALUE-+-VIDEO" sketch:type="MSLayerGroup">
                <g id="ARROW-(MORE)" transform="translate(1322.000000, 1514.000000)" sketch:type="MSShapeGroup">
                    <ellipse id="Oval-2" fill="#1A1919" cx="50.7241801" cy="51.5340934" rx="50.2758199" ry="50.7823129"></ellipse>
                    <path d="M33.1271613,40.0508082 C32.1385766,39.0894394 32.1385766,37.5307447 33.1271613,36.5698426 C34.1148665,35.6088627 35.7168294,35.6088627 36.7044547,36.5698426 L50.4486201,49.9425068 L64.1923057,36.5702315 C65.1804107,35.6092517 66.7822137,35.6092517 67.7699189,36.5702315 C68.7580239,37.5312114 68.7580239,39.0898284 67.7699189,40.0511972 L52.236867,55.1641886 C51.7427746,55.6446786 51.0958972,55.8846513 50.4487,55.8846513 C49.801183,55.8846513 49.153826,55.6442119 48.6599734,55.1637997 L33.1271613,40.0508082 Z" id="Imported-Layers" stroke="#FFFFFF" fill="#FFFFFF"></path>
                    <path d="M33.1271613,57.1828637 C32.1385766,56.2214949 32.1385766,54.6628001 33.1271613,53.701898 C34.1148665,52.7409182 35.7168294,52.7409182 36.7044547,53.701898 L50.4486201,67.0745623 L64.1923057,53.702287 C65.1804107,52.7413071 66.7822137,52.7413071 67.7699189,53.702287 C68.7580239,54.6632668 68.7580239,56.2218838 67.7699189,57.1832526 L52.236867,72.2962441 C51.7427746,72.776734 51.0958972,73.0167067 50.4487,73.0167067 C49.801183,73.0167067 49.153826,72.7762673 48.6599734,72.2958551 L33.1271613,57.1828637 Z" id="Imported-Layers-Copy-2" stroke="#FFFFFF" fill="#FFFFFF"></path>
                </g>
            </g>
        </g>
    </g>
</svg>