<?xml version="1.0" encoding="UTF-8" standalone="no"?>
<svg width="401px" height="104px" viewBox="0 0 401 104" version="1.1" xmlns="http://www.w3.org/2000/svg" xmlns:xlink="http://www.w3.org/1999/xlink" xmlns:sketch="http://www.bohemiancoding.com/sketch/ns">
    <!-- Generator: Sketch 3.3.2 (12043) - http://www.bohemiancoding.com/sketch -->
    <title>SCT LOGO</title>
    <desc>Created with Sketch.</desc>
    <defs></defs>
    <g id="Page-1" stroke="none" stroke-width="1" fill="none" fill-rule="evenodd" sketch:type="MSPage">
        <g id="home" sketch:type="MSArtboardGroup" transform="translate(-50.000000, -23.000000)">
            <g id="HEADER-+-VALUE-+-VIDEO" sketch:type="MSLayerGroup">
                <g id="HEADER" sketch:type="MSShapeGroup">
                    <g id="SCT-LOGO" transform="translate(50.000000, 23.500000)">
                        <path d="M273.776663,78.6796202 L273.776663,82.6609663 L273.015906,82.6609663 L273.015906,78.6796202 L271.571908,78.6796202 L271.571908,78.0660769 L275.220164,78.0660769 L275.220164,78.6796202 L273.776663,78.6796202 L273.776663,78.6796202 Z M280.468941,82.6609663 L280.468941,78.8247115 L280.44658,78.8247115 L278.935998,82.6609663 L278.454499,82.6609663 L276.94342,78.8247115 L276.921556,78.8247115 L276.921556,82.6609663 L276.160302,82.6609663 L276.160302,78.0660769 L277.335476,78.0660769 L278.711895,81.5566875 L280.065953,78.0660769 L281.230195,78.0660769 L281.230195,82.6609663 L280.468941,82.6609663 L280.468941,82.6609663 Z" id="Fill-1" fill="#FFFFFF"></path>
                        <path d="M308.040051,2.61065385 L309.983932,3.06524038 L391.981227,22.2673125 L296.532792,43.4135096 L298.822517,35.292851 L279.106932,35.292851 L269.018328,74.2996442 C267.902783,78.6152452 263.871416,81.7473365 259.433087,81.7473365 L238.258597,81.7473365 L250.273193,35.292851 L193.149824,35.292851 C189.426537,35.292851 186.158908,36.3619712 183.159607,38.5611202 C180.241301,40.7013413 178.412204,43.3288317 177.567968,46.5936346 C176.874789,49.2746058 177.124234,51.1043413 178.376428,52.527524 C179.775207,54.1141202 182.046546,54.8856298 185.319641,54.8856298 L230.548167,54.8856298 L223.601476,81.7473365 L181.134731,81.7473365 C169.55244,81.7473365 160.635532,78.0279471 154.63047,70.6931587 C153.552689,69.3769375 152.600128,67.9725721 151.790177,66.5082885 C149.45424,69.9246202 146.353571,72.9076587 142.561214,75.3860962 C136.221737,79.606125 128.936159,81.7473365 120.910693,81.7473365 L65.8529455,81.7473365 C63.4131561,82.8699375 57.3131859,85.374125 50.7635192,85.7400721 C50.4623965,85.7569087 50.1597831,85.7653269 49.8656171,85.7653269 C42.4051289,85.7653269 38.8801053,80.5771971 36.7742342,77.4777885 C36.4224275,76.9603125 36.0979504,76.4824519 35.7943432,76.078375 C34.6917175,74.6066635 34.2792887,74.0565048 32.9903247,73.3117356 C32.5778959,73.0735481 32.3160285,73.0032308 32.2564002,72.9972885 L31.9811165,72.9755 C30.7125254,72.9755 27.227254,75.1474135 24.7680855,77.1762163 L21.0532454,80.2419519 L21.3588401,75.445024 C21.3652999,75.3440048 21.5034387,73.3023269 22.1295353,70.9457067 C16.3977695,73.591024 10.390223,76.6156587 10.3281103,76.6468558 L4.65746344,79.5085721 L9.0331834,70.8877692 C9.45207187,70.0617885 19.4596803,50.6621346 34.2251264,50.6621346 C37.0435551,50.6621346 39.8406171,51.3732308 42.5387955,52.7766058 C42.7907249,52.8741587 43.039176,52.9746827 43.2861363,53.0747115 C43.8903693,53.3193365 44.7172144,53.6540865 45.0079021,53.6540865 C45.0501388,53.6540865 45.2205762,53.6357644 45.6384709,53.4010433 C45.957482,53.2217837 46.2938848,53.0271731 46.6476791,52.8221635 L46.7878055,52.7414471 C50.0867385,50.8295096 54.9414721,48.0158269 60.8034263,47.5845144 C59.5467608,46.6426587 58.5435155,45.4279519 57.8071066,43.9537644 C55.2485576,44.7535 52.8748563,45.1427212 50.5672429,45.1427212 C50.160777,45.1427212 49.7572924,45.1313317 49.3672243,45.1080577 C43.9251524,44.7906394 39.3382491,42.4310481 37.0649219,40.5067308 C33.9085998,37.837149 32.6887051,35.5087548 30.9883061,30.9688317 L30.9649517,30.9059423 C28.7567187,30.3275577 26.6781772,29.4575048 25.0831214,28.4403798 L8.24708426,17.7041154 L28.2145985,18.6053654 C28.5818092,18.6222019 29.2561053,18.6543894 29.6198377,18.6717212 L29.8643135,18.6831106 C31.2775031,18.7514471 32.2956555,18.8009663 33.1339294,18.8009663 C34.663891,18.8009663 35.724777,18.6202212 38.2922701,17.9229904 C39.20657,17.6744038 40.5795105,17.0123317 42.0329492,16.3116346 C45.7706468,14.5086394 50.4221475,12.2639327 56.1479504,12.2639327 C58.2523309,12.2639327 60.347767,12.5818462 62.3761214,13.2077692 C68.1690062,14.9973942 71.378,17.8234567 74.4816506,20.5564231 C74.7072441,20.7554904 74.9348253,20.9560433 75.1653879,21.1575865 C76.7713755,17.6590529 81.1605118,11.2255144 91.6923519,11.2255144 C92.1415514,11.2255144 92.6051611,11.237399 93.072746,11.2606731 C97.6889665,9.32397596 102.719107,8.34250481 108.026518,8.34250481 L163.753592,8.34250481 L159.51452,24.7308942 C161.764493,22.2257163 164.339937,19.9270337 167.198118,17.8759471 C176.013161,11.5498654 186.160399,8.34250481 197.357591,8.34250481 L306.423628,8.34250481 L308.040051,2.61065385 L308.040051,2.61065385 Z M76.9900124,54.8856298 L87.6575068,54.8856298 C84.6114969,53.8293846 81.9654932,52.2655673 79.7567633,50.2105192 C78.8235812,49.3454183 77.9877918,48.4010865 77.2687745,47.3988173 C76.8185812,47.557774 76.2675167,47.7969519 75.6921041,48.0475192 C74.1208996,48.7303894 72.2366468,49.5499327 69.9722639,49.8203077 C72.956658,51.471774 75.535083,53.6422019 76.9900124,54.8856298 L76.9900124,54.8856298 Z M306.641768,0.249081731 L304.917518,6.36173558 L197.357591,6.36173558 C185.735051,6.36173558 175.196751,9.694875 166.036361,16.2685529 C165.055973,16.9722212 164.105399,17.7060962 163.187124,18.4667115 L166.318601,6.36173558 L108.026518,6.36173558 C102.612273,6.36173558 97.4648637,7.33775962 92.7184548,9.26306731 C92.3711202,9.25118269 92.0272639,9.24474519 91.6923519,9.24474519 C82.0102144,9.24474519 76.9880248,14.3328462 74.6158141,18.0383702 C71.7725403,15.5817212 68.3955936,12.993351 62.9649504,11.3161346 C60.7447918,10.6307885 58.4515886,10.2831635 56.1479504,10.2831635 C49.9669851,10.2831635 45.0879033,12.6373077 41.1673457,14.5284471 C39.8555242,15.1613029 38.5049442,15.8119856 37.7690322,16.0120433 C35.2243965,16.7033317 34.3796629,16.8201971 33.1339294,16.8201971 C32.3423643,16.8201971 31.3430942,16.7716683 29.9607125,16.7048173 L29.7137522,16.6929327 C29.3505167,16.675601 28.674233,16.6434135 28.3060285,16.6265769 L8.33702354,15.7253269 L0.932685254,15.3910721 L24.0118005,30.1086827 C25.5238736,31.0728221 27.4294932,31.9205913 29.4598352,32.5385913 C31.1006059,36.7784279 32.5222429,39.2628077 35.7784424,42.0170673 C38.2858104,44.1389663 43.3189318,46.7397163 49.2514461,47.0853606 C49.6787819,47.1106154 50.1225155,47.1234904 50.5672429,47.1234904 C52.0291289,47.1234904 53.5069157,46.9823606 55.0294238,46.695149 C51.2564461,47.8603365 48.1160248,49.6801683 45.7885353,51.0290721 L45.652881,51.1073125 C45.3756097,51.2677548 45.1117546,51.420274 44.8593284,51.564375 C44.5800694,51.4603846 44.2411822,51.3232163 44.0384461,51.2415096 C43.8123556,51.149899 43.587259,51.0587837 43.3601747,50.969649 C40.4055948,49.4508942 37.3327522,48.6813654 34.2251264,48.6813654 C27.5765762,48.6813654 20.8460372,52.3022115 14.760974,59.1522067 C10.222767,64.2611058 7.5489368,69.4224952 7.25924287,69.9944423 L0.14857373,84.0044231 L11.2260124,78.4141971 C11.4198042,78.3166442 15.1232156,76.4532356 19.4636555,74.3863029 C19.4045242,74.8973413 19.3806729,75.2320913 19.3752069,75.3177596 L18.7779306,84.6912548 L26.0356828,78.7019038 C28.4292602,76.7270769 31.0310397,75.2340721 31.9180099,74.9835048 C31.9403705,74.9953894 31.9657125,75.0092548 31.9930421,75.025101 C32.9297026,75.5663462 33.1488364,75.8585096 34.2012751,77.2623798 C34.4765589,77.6293173 34.790601,78.0913317 35.1230285,78.5805817 C37.302938,81.7889327 41.3502057,87.7460962 49.8656171,87.7460962 C50.196057,87.7460962 50.5354411,87.7366875 50.8748253,87.717375 C57.4518216,87.3504375 63.586575,84.9348894 66.2842565,83.7281058 L120.910693,83.7281058 C129.336662,83.7281058 136.992432,81.475476 143.665331,77.0331058 C146.75805,75.012226 149.429395,72.656101 151.630175,70.0092981 C152.089809,70.6723606 152.577767,71.3190817 153.09057,71.9455 C159.491166,79.7635962 168.926343,83.7281058 181.134731,83.7281058 L225.141872,83.7281058 L233.113176,52.9048606 L185.319641,52.9048606 C182.651773,52.9048606 180.868888,52.3537115 179.869618,51.2202163 C179.31756,50.5933029 178.840534,49.6108413 179.492967,47.0883317 C180.217947,44.2830673 181.803064,42.0155817 184.337762,40.1566298 C186.983269,38.2164663 189.865798,37.2736202 193.149824,37.2736202 L247.708185,37.2736202 L235.693589,83.7281058 L259.433087,83.7281058 C264.764349,83.7281058 269.604673,79.9705865 270.943327,74.7938462 L280.647328,37.2736202 L296.199371,37.2736202 L293.720326,46.0657596 L400.898135,22.3207933 L310.438597,1.13696154 L306.641768,0.249081731 L306.641768,0.249081731 Z M74.7862515,50.5769615 C75.3954535,50.3372885 75.961425,50.0911779 76.4866506,49.8628942 C76.5333594,49.8425913 76.5800682,49.8222885 76.626777,49.8019856 C77.1753569,50.4516779 77.7696518,51.0736394 78.4027051,51.6609375 C78.8697931,52.0952212 79.3552664,52.5096971 79.8586283,52.9048606 L77.722943,52.9048606 C76.9790805,52.2759663 75.9728538,51.4475096 74.7862515,50.5769615 L74.7862515,50.5769615 Z" id="Fill-2" fill="#1A1918"></path>
                        <path d="M49.8656171,85.5786394 C42.5114659,85.5786394 39.0242069,80.4459712 36.9406964,77.3792452 C36.5928649,76.8667212 36.2639157,76.3829183 35.9558364,75.9714135 C34.8348253,74.4764279 34.4154399,73.9173558 33.0911958,73.1517885 C32.6196357,72.8789375 32.3334201,72.8125817 32.2703135,72.8110962 L32.2151574,72.8091154 L32.0859628,72.7982212 L32.0332912,72.7907933 C32.0248439,72.7898029 32.0074523,72.7883173 31.9811165,72.7883173 C30.6260644,72.7883173 27.1154511,74.9929135 24.6398848,77.0355817 L21.283311,79.8046971 L21.5600855,75.4717644 C21.5665452,75.3662885 21.7185973,73.1057356 22.4386084,70.5956058 C16.6824944,73.2409231 10.5099765,76.3442933 10.238171,76.4809663 L5.11461338,79.0668606 L9.21306196,70.9917596 C9.62946592,70.1707308 19.5819182,50.8765529 34.2251264,50.8765529 C37.013741,50.8765529 39.7829765,51.5822019 42.455316,52.9736923 C42.7097299,53.0722356 42.9606654,53.1732548 43.2106072,53.274274 C43.8640335,53.5392019 44.6769653,53.8685048 45.0079021,53.8685048 C45.0953569,53.8685048 45.3060434,53.8323558 45.7373544,53.5897115 C46.0499058,53.4139183 46.378855,53.2237644 46.7246989,53.0237067 L46.8876828,52.929125 C50.2775489,50.9646971 55.3166332,48.0445481 61.38828,47.7642692 C59.8916109,46.7714087 58.7263755,45.4180481 57.9119529,43.7244904 C55.3081859,44.5529471 52.9026828,44.9560337 50.5672429,44.9560337 C50.1677336,44.9560337 49.7682243,44.944149 49.3796468,44.9213702 C43.9867683,44.6069231 39.4455799,42.2720913 37.1951103,40.3675817 C34.0735713,37.7272163 32.8641115,35.4176394 31.1771289,30.9123798 L31.1170037,30.7519375 C28.8908823,30.179 26.7939554,29.3064712 25.1914461,28.2843942 L8.98846221,17.9522067 L28.2056543,18.8197837 C28.724917,18.8430577 29.8583507,18.8975288 29.8628228,18.898024 C31.2700496,18.9658654 32.2896927,19.0153846 33.1339294,19.0153846 C34.6857546,19.0153846 35.7570756,18.833649 38.3454387,18.130476 C39.2771301,17.8769375 40.658518,17.2109038 42.120404,16.5062452 C45.8402131,14.7116683 50.4688563,12.4788462 56.1479504,12.4788462 C58.2324548,12.4788462 60.3080149,12.7932933 62.3169901,13.413274 C68.068632,15.190024 71.2607311,18.001726 74.3479839,20.7208269 C74.6406592,20.9788221 74.9368129,21.2397885 75.2379356,21.50125 C76.7291388,18.1101731 81.0218761,11.4399327 91.6923519,11.4399327 C92.1519864,11.4399327 92.6280186,11.4528077 93.1085229,11.4775673 C97.711824,9.53938462 102.730038,8.55692308 108.026518,8.55692308 L163.493713,8.55692308 L159.109048,25.5093365 C161.477284,22.7694375 164.231115,20.2662404 167.315884,18.0527308 C176.096144,11.7519038 186.203629,8.55692308 197.357094,8.55692308 L306.576674,8.55692308 L308.181668,2.86419231 L391.077362,22.276226 L296.817517,43.1584856 L299.088359,35.1056683 L278.950905,35.1056683 L268.823543,74.263 C267.730358,78.4914471 263.78098,81.5601538 259.433584,81.5601538 L238.51798,81.5601538 L250.533073,35.1056683 L193.149824,35.1056683 C189.381815,35.1056683 186.075429,36.1876635 183.040351,38.4135529 C180.082789,40.582 178.229344,43.2461346 177.373182,46.5574856 C176.661121,49.3092692 176.923983,51.1954567 178.224872,52.6736058 C179.664398,54.3062548 181.984931,55.1000481 185.319641,55.1000481 L230.289281,55.1000481 L223.445449,81.5601538 L181.134731,81.5601538 C169.616043,81.5601538 160.75131,77.8660192 154.786497,70.5797596 C153.64561,69.1862885 152.645346,67.694274 151.809059,66.1354087 C149.466663,69.6448365 146.32177,72.702649 142.450902,75.2315962 C136.143724,79.4308269 128.895413,81.5601538 120.910693,81.5601538 L65.8087212,81.5601538 C63.4071933,82.6688894 57.3027509,85.1874375 50.7525874,85.5533846 C50.4474895,85.5702212 50.1493482,85.5786394 49.8656171,85.5786394 L49.8656171,85.5786394 Z M88.9479616,55.1000481 C85.408031,54.0655913 82.3729529,52.3834231 79.8939083,50.0773125 C78.9324027,49.1864615 78.0762404,48.2104375 77.3457943,47.1735048 C76.8687683,47.3304808 76.2536035,47.5978846 75.6076307,47.8786587 C73.9027596,48.6199615 71.8222305,49.5251731 69.2905143,49.6965096 C72.5427385,51.386601 75.3845217,53.7912548 76.9154771,55.1000481 L88.9479616,55.1000481 L88.9479616,55.1000481 Z" id="Fill-3" fill="#FFFFFF"></path>
                        <path d="M308.459436,3.33214904 L309.291747,3.52675962 L309.847284,3.6565 L389.309384,22.2653317 L298.832952,42.309726 L297.375041,42.6325913 L299.608616,34.7129808 L278.645807,34.7129808 L268.441922,74.1654471 C267.392465,78.2230529 263.604083,81.1679615 259.433087,81.1679615 L239.026808,81.1679615 L251.041404,34.7129808 L193.149824,34.7129808 C189.294857,34.7129808 185.911948,35.8202308 182.806807,38.097125 C179.773219,40.3215288 177.871078,43.0569712 176.991561,46.4594375 C176.243724,49.3503702 176.532921,51.3464904 177.928719,52.9325913 C179.447748,54.6553654 181.865177,55.4927356 185.319641,55.4927356 L229.780454,55.4927356 L223.139854,81.1679615 L181.134731,81.1679615 C169.740269,81.1679615 160.978394,77.5218606 155.092092,70.3316683 C153.819029,68.7772596 152.73131,67.1094519 151.846824,65.3554808 C149.498962,69.0585288 146.271086,72.2658894 142.23475,74.9032837 C135.990678,79.0599279 128.816405,81.1679615 120.910693,81.1679615 L65.7217633,81.1679615 C63.2541475,82.3133413 57.2292094,84.7982163 50.7307237,85.1611923 C50.4365576,85.1775337 50.1458699,85.1859519 49.8656171,85.1859519 C42.7206617,85.1859519 39.3069442,80.1612356 37.2671611,77.1588846 C36.9168451,76.642399 36.5854114,76.1551298 36.2713693,75.7361971 C35.1478736,74.2377452 34.6832701,73.6177644 33.2889628,72.8120865 C32.795539,72.5268558 32.4362788,72.421875 32.2787608,72.4184087 L32.2494436,72.4179135 L32.2206233,72.4154375 L32.1465849,72.409 L32.1197522,72.406524 L32.0924226,72.4025625 C32.0715527,72.3995913 32.0347819,72.3956298 31.9811165,72.3956298 C30.3701599,72.3956298 26.5713432,74.9320048 24.3884523,76.7330192 L21.7344981,78.9227596 L21.9531351,75.496524 C21.9620793,75.3539087 22.1459331,72.6461971 23.0761338,69.872625 C16.9925613,72.6402548 10.1343185,76.0932308 10.0587893,76.1318558 L6.00854027,78.1755144 L9.56437175,71.1690385 C9.9768005,70.3564279 19.8239095,51.2692404 34.2251264,51.2692404 C36.9565973,51.2692404 39.6706766,51.9630048 42.2918352,53.3317163 C42.5512181,53.4317452 42.8076196,53.5352404 43.0620335,53.6382404 C43.8188154,53.9447644 44.6009393,54.2611923 45.0079021,54.2611923 C45.2344895,54.2611923 45.5366059,54.1537356 45.9311462,53.9318894 C46.252145,53.7511442 46.5905353,53.5555433 46.947311,53.3485529 L47.0854498,53.2693221 C50.6129579,51.2246731 55.9442206,48.1351683 62.3299095,48.1351683 C62.5107819,48.1351683 62.6916543,48.1401202 62.8725266,48.1495288 C60.3462763,46.9566106 58.9236456,45.0461587 58.1231363,43.2426683 C56.211057,43.8740385 53.5705192,44.5633462 50.5672429,44.5633462 C50.1746902,44.5633462 49.7826344,44.5519567 49.4030012,44.5291779 C44.1065217,44.2206731 39.6537819,41.9333798 37.450518,40.0684856 C34.3960607,37.4845721 33.2084647,35.2126298 31.5463271,30.7752115 L31.4136543,30.4216442 C29.1482776,29.8591058 27.029487,28.9905385 25.4041202,27.954101 L10.4389195,18.4107548 L13.7666729,18.5607981 L28.1877658,19.211976 C28.7055378,19.23525 29.8349963,19.2897212 29.8394684,19.2897212 C31.2581239,19.3585529 32.2827361,19.4080721 33.1339294,19.4080721 C34.7274944,19.4080721 35.8206791,19.2233654 38.4487943,18.5092981 C39.4162627,18.246351 40.8115638,17.5733846 42.2923321,16.8593173 C45.9753705,15.0825673 50.5592924,12.8715337 56.1479504,12.8715337 C58.1927026,12.8715337 60.2290074,13.1800385 62.2002181,13.7886298 C67.8708649,15.540125 71.0311623,18.323601 74.0871103,21.0154663 C74.5129554,21.3903269 74.9472478,21.7731106 75.3914783,22.1529231 C76.7927423,18.6464663 80.9080855,11.8331154 91.6923519,11.8331154 C92.1748439,11.8331154 92.6737336,11.8469808 93.1785861,11.8742163 C97.7560483,9.93355769 102.749914,8.94961058 108.026518,8.94961058 L162.984885,8.94961058 L158.285682,27.1177212 C160.874045,23.8643077 163.974714,20.93475 167.545949,18.3711394 C176.258134,12.1193365 186.288103,8.94961058 197.357094,8.94961058 L306.874815,8.94961058 L308.459436,3.33214904 L308.459436,3.33214904 Z M68.4413086,49.3325433 C68.1809318,49.3325433 67.9195613,49.324125 67.6646506,49.3072885 C67.6159542,49.3043173 67.5672577,49.300851 67.5190582,49.2973846 C71.3114151,50.8869519 74.7221512,53.7417356 76.7693879,55.4927356 L92.483917,55.4927356 C87.498995,54.6821058 83.3697385,52.7736346 80.1627323,49.7905962 C79.1480582,48.8497308 78.2571128,47.8182452 77.5077844,46.7164423 C77.5052999,46.7169375 77.5028154,46.7174327 77.5003309,46.7179279 C76.9497633,46.8669808 76.2227955,47.1829135 75.4501128,47.5186538 C73.5916989,48.3268077 71.2791165,49.3325433 68.4413086,49.3325433 L68.4413086,49.3325433 Z M307.904893,2.39574038 L306.278036,8.16423558 L197.357094,8.16423558 C186.119156,8.16423558 175.934154,11.383976 167.085321,17.7338269 C164.435342,19.6358606 162.027354,21.7498365 159.895147,24.0430721 L164.002043,8.16423558 L108.026518,8.16423558 C102.709169,8.16423558 97.6675998,9.14521154 93.0384597,11.0804231 C92.5823036,11.0586346 92.1306196,11.0472452 91.6923519,11.0472452 C86.79886,11.0472452 82.7019021,12.4030817 79.5157658,15.0771202 C77.2980917,16.9380529 75.9251512,19.108976 75.0978092,20.8565096 C74.9333346,20.7124087 74.7698538,20.5683077 74.6088575,20.4266827 C71.4902999,17.679851 68.2659021,14.8399231 62.4332652,13.0384135 C60.3865254,12.4065481 58.27171,12.0861587 56.1479504,12.0861587 C50.3784201,12.0861587 45.7045589,14.3407692 41.9489727,16.1526779 C40.5029876,16.8499087 39.1384944,17.5080192 38.2415861,17.7516538 C35.693969,18.4434375 34.643518,18.6226971 33.1339294,18.6226971 C32.3021152,18.6226971 31.2864473,18.5736731 29.8807113,18.5053365 L29.8752454,18.5053365 L29.8672949,18.5048413 L29.7833185,18.5008798 C29.5000843,18.4875096 28.6523693,18.4469038 28.2235428,18.4275913 L13.8019529,17.7764135 L10.4741995,17.625875 L7.53800496,17.4936587 L24.9792689,28.6156779 C26.567368,29.6283462 28.6280211,30.4964183 30.8193594,31.0797548 C32.5257212,35.6330481 33.7580384,37.9753077 36.9401995,40.6671731 C39.2363841,42.6103077 43.866518,44.9936683 49.3567893,45.3135625 C49.7508327,45.3368365 50.1587893,45.3487212 50.5672429,45.3487212 C52.8470297,45.3487212 55.1899232,44.972375 57.70872,44.1993798 C58.3730781,45.4834135 59.2401722,46.568875 60.302052,47.4483365 C54.6155043,47.9965144 49.9143135,50.7210625 46.6889219,52.5899183 L46.5522739,52.669149 C46.1979827,52.8746538 45.8620768,53.0687692 45.5440595,53.2475337 C45.1539913,53.4669038 45.0118773,53.4758173 45.0059145,53.4758173 C44.7534882,53.4753221 43.8804312,53.1217548 43.358684,52.9108029 C43.1142082,52.8117644 42.8677447,52.7122308 42.6182999,52.6151731 C39.8952763,51.2009038 37.0713817,50.4838654 34.2251264,50.4838654 C19.3434052,50.4838654 9.28213135,69.9845385 8.86125527,70.814976 L4.22068649,79.9582067 L10.4145713,76.8325529 C10.476684,76.8013558 16.212425,73.9124038 21.8423259,71.3037308 C21.2957336,73.5127837 21.1725019,75.3514327 21.166539,75.4465096 L20.8326208,80.6871298 L24.8913172,77.3381442 C27.2744597,75.3717356 30.7721537,73.1810048 31.9811165,73.1810048 L31.978632,73.1800144 L32.0024833,73.1834808 L32.0273284,73.1869471 L32.0526704,73.1894231 L32.0795031,73.1914038 L32.1525477,73.1978413 L32.1828587,73.2003173 L32.2077038,73.2022981 L32.2325489,73.2032885 L32.2404994,73.2032885 C32.2812454,73.2117067 32.5003792,73.2641971 32.8934287,73.4914904 C34.1486035,74.2164519 34.5242615,74.7180817 35.6398067,76.2066298 C35.9424201,76.6097163 36.267891,77.0890625 36.612741,77.5961394 C38.7419665,80.7302115 42.302767,85.9713269 49.8656171,85.9713269 C50.1597831,85.9713269 50.4658748,85.9624135 50.7744511,85.9455769 C57.3221301,85.5796298 63.4196159,83.0888125 65.8951822,81.9533365 L120.910693,81.9533365 C128.974917,81.9533365 136.29677,79.8012308 142.67252,75.5564423 C146.38587,73.13 149.443805,70.2162885 151.773283,66.8851298 C152.55491,68.2627548 153.46275,69.5844231 154.481399,70.8283462 C160.524722,78.2101779 169.491818,81.9533365 181.134731,81.9533365 L223.750546,81.9533365 L230.797115,54.7073606 L185.319641,54.7073606 C182.105181,54.7073606 179.881047,53.9571442 178.521026,52.414125 C177.299144,51.026101 177.069575,49.3038221 177.754803,46.6555337 C178.587114,43.4352981 180.392359,40.8424712 183.273895,38.7299808 C186.23891,36.5555913 189.46927,35.4983558 193.149824,35.4983558 L250.024742,35.4983558 L238.009649,81.9533365 L259.433087,81.9533365 C263.957877,81.9533365 268.067755,78.7603365 269.205164,74.3610481 L279.256499,35.4983558 L298.5686,35.4983558 L296.259993,43.6843798 L297.546472,43.3996442 L299.004383,43.0762837 L392.84534,22.286625 L385.686471,20.6099038 L310.027659,2.89192308 L309.472123,2.76218269 L307.904893,2.39574038 L307.904893,2.39574038 Z M70.5586084,49.9460865 C72.5993854,49.6152981 74.3156853,48.8690433 75.7651487,48.2386635 C76.28143,48.0143413 76.7773383,47.7989327 77.1982144,47.6429471 C77.9048092,48.6115433 78.7197286,49.5256683 79.6260781,50.3655144 C81.6072268,52.2086202 83.9362069,53.6600288 86.5866828,54.7073606 L77.0610694,54.7073606 C75.6737187,53.5228606 73.3134337,51.5435769 70.5586084,49.9460865 L70.5586084,49.9460865 Z" id="Fill-4" fill="#BE2531"></path>
                        <path d="M170.330092,22.1499519 C162.408975,27.8342644 157.266038,35.2571971 154.896809,44.4177596 C152.526586,53.5817885 153.819525,61.1958654 158.783577,67.2555337 C163.744151,73.3156971 171.195695,76.3457788 181.134731,76.3457788 L219.447871,76.3457788 L223.632284,60.1658654 L185.319641,60.1658654 C180.45646,60.1658654 176.799757,58.7709087 174.347545,55.9889183 C171.895333,53.2034615 171.237435,49.6103462 172.377825,45.2001635 C173.532129,40.7365 176.068317,37.069601 179.982912,34.1989712 C183.897507,31.3278462 188.286643,29.8907981 193.149824,29.8907981 L230.749413,29.8907981 L234.95718,13.6227404 L197.357094,13.6227404 C187.260043,13.6227404 178.251208,16.4651442 170.330092,22.1499519" id="Fill-5" fill="#1A1918"></path>
                        <path d="M367.936134,22.0623029 L311.811538,8.91890865 L310.484809,13.6227404 L241.640513,13.6227404 C239.556506,13.6227404 237.652874,15.1122788 237.12417,17.1569279 L233.830703,29.8907981 L257.189574,29.8907981 L245.174481,76.3457788 L259.433087,76.3457788 C261.461441,76.3457788 263.313892,74.8958558 263.828683,72.9056779 L274.953824,29.8907981 L305.896415,29.8907981 L304.116512,36.2010337 L367.936134,22.0623029" id="Fill-6" fill="#1A1918"></path>
                        <path d="M103.818751,29.8907981 L152.629445,29.8907981 L156.837212,13.6227404 L108.026518,13.6227404 C103.024701,13.6227404 98.4084808,14.602726 94.1743779,16.5562596 C93.6556121,16.6122163 93.1542379,16.5735913 92.7333618,16.5037692 C92.3631698,16.387399 91.996456,16.2918269 91.6337175,16.2220048 C91.6327237,16.2215096 91.6272577,16.2195288 91.6272577,16.2195288 L91.6262639,16.2205192 C85.6500223,15.0677115 80.8390161,19.9007885 80.529943,21.0313125 C82.6541995,20.190476 84.585658,19.4466971 86.0152454,19.7487644 C86.0152454,19.7487644 87.4751437,20.5054183 86.0152454,22.0682452 C86.0087856,22.0751779 86.0033197,22.0826058 85.99686,22.0895385 C84.0400595,24.0069231 82.504632,26.1649712 81.3910743,28.5641779 C81.3895836,28.567149 81.387596,28.569625 81.3861053,28.5725962 C80.3595056,30.5236538 77.8108947,29.8719808 77.4531252,29.6243846 C77.0953556,29.3767885 75.8595601,28.4309712 75.1862577,27.9590529 C70.2271747,24.4798317 67.7058934,20.3850865 60.7900099,18.2488269 C51.8393123,15.4841683 44.7062825,21.6547596 39.7014845,23.0155481 C34.7424015,24.3624712 33.9662404,24.151024 27.9716134,23.880649 C30.9058203,25.7514856 37.0415675,27.3450144 42.541777,25.5192404 C56.1996283,20.9852596 59.3917274,26.4497067 59.6913594,27.1578317 C60.2702503,28.5354567 59.5999294,30.9485288 58.3462454,32.31625 C56.5250991,34.3064279 52.4336072,35.5260865 49.2002652,34.9343317 C43.8779467,33.9632596 39.4177534,31.0960962 36.0095019,29.0405529 C37.4937485,33.0030817 38.3484201,34.5262933 40.5337955,36.3748462 C42.3176741,37.8841923 45.8148711,39.490101 49.6812664,39.7154135 C56.1812429,40.0947308 61.2814461,36.1728077 66.4815266,35.1685577 C68.936223,34.695649 72.4632342,34.6783173 73.1226233,36.2000433 C73.5241202,37.1255577 72.9357881,38.8562548 72.3494436,39.3549135 C71.1365056,40.3859038 69.225917,41.073726 67.4355787,41.0247019 C65.5885936,40.9741923 63.3013532,40.0783894 61.9661772,39.5267452 C62.4685452,42.4325337 64.2062119,44.2479087 67.9796865,44.4955048 C71.1360087,44.7034856 73.7089678,42.7098413 76.3991958,42.0235048 C76.9174647,41.910601 77.4044287,41.8105721 77.8640632,41.7199519 C78.6079257,41.6293317 79.8968897,41.6778606 80.7669653,42.8331442 C80.8981475,43.0827212 81.0397646,43.326851 81.189829,43.5680096 C81.1952949,43.5808846 81.2017546,43.5927692 81.2072206,43.6061394 C81.2097051,43.6071298 81.2121896,43.607625 81.2146741,43.6081202 C81.8049938,44.5484904 82.5329554,45.4289423 83.4124721,46.2440288 C86.9056939,49.4934808 91.8776964,51.1182067 98.3284796,51.1182067 L127.435514,51.1182067 C129.339643,51.1182067 130.92973,51.4088846 132.206768,51.9857837 C133.900211,52.7998798 134.544693,53.9888365 134.139717,55.5536442 C133.749649,57.0615048 132.490499,58.2509567 130.361274,59.1215048 C128.700627,59.8152692 126.944575,60.1658654 125.095602,60.1658654 L75.9504932,60.1658654 C75.3383098,60.1658654 74.7614064,59.9583798 74.3146914,59.5760913 C71.8122924,57.4338894 66.5436394,52.8082981 62.3299095,52.8082981 C56.5628637,52.8082981 51.561544,56.1434183 48.2710582,57.9924663 C44.9810694,59.8420096 42.8622788,58.5495577 40.4354089,57.6314712 C26.3566815,52.3066683 18.6348228,64.6760769 15.1888067,69.2704712 C18.4673668,67.156 27.4483755,60.7397933 32.2042255,61.4271202 C35.5016679,61.9015144 37.770026,63.4113558 40.5755353,64.5408894 C43.3929703,65.6768606 47.5242144,65.7818413 50.6253804,64.617149 C53.1670347,63.664399 57.4552999,61.8262452 60.5872739,63.2494279 C62.5733916,64.1521635 62.8422156,67.1485721 61.3241797,69.4784519 C59.3062602,72.5768702 54.0410855,74.0896827 49.9307113,72.7447404 C47.5833457,71.9752115 46.2332627,70.2727404 44.2476419,68.945625 C31.2417261,60.8314038 27.9949678,70.7555529 27.9949678,70.7555529 C27.9949678,70.7555529 31.9319232,67.0960817 35.679062,68.6301875 C38.0482912,69.6007644 38.8448253,71.1616106 40.0875774,72.8205048 C42.4617757,75.9852788 44.4747261,80.6816827 50.4638872,80.3464375 C56.4202528,80.0131731 62.0208364,77.5901971 63.9363941,76.6835 C64.408948,76.4596731 64.9197633,76.3457788 65.4271004,76.3457788 L120.910693,76.3457788 C127.887695,76.3457788 134.12332,74.5190144 139.616076,70.8625144 C145.47157,67.0361635 149.198833,62.0203606 150.80333,55.815601 C152.424224,49.5504279 151.33899,44.4494519 147.548621,40.5027692 C143.854651,36.7932837 138.545748,34.9387885 131.620424,34.9387885 L102.513389,34.9387885 C100.344908,34.9387885 99.4817893,34.0959712 99.9160818,32.4147933 C100.351368,30.7331202 101.65027,29.8907981 103.818751,29.8907981" id="Fill-7" fill="#1A1918"></path>
                        <path d="M201.390449,95.9687644 C201.390449,97.8247452 200.792178,99.3613269 199.595638,100.578014 C198.399098,101.795197 196.875596,102.403788 195.025629,102.403788 L187.902041,102.403788 L187.902041,89.8100577 L195.025629,89.8100577 C196.888019,89.8100577 198.414502,90.3755673 199.605079,91.5065865 C200.79516,92.6376058 201.390449,94.1246683 201.390449,95.9687644 L201.390449,95.9687644 Z M199.188675,96.152976 C199.188675,94.9362885 198.797116,93.9404567 198.013502,93.165976 C197.230384,92.3914952 196.234592,92.0042548 195.025629,92.0042548 L190.085429,92.0042548 L190.085429,100.209591 L195.025629,100.209591 C196.234592,100.209591 197.230384,99.8347308 198.013502,99.0845144 C198.797116,98.3352885 199.188675,97.3577788 199.188675,96.152976 L199.188675,96.152976 Z" id="Fill-8" fill="#FFFFFF"></path>
                        <path d="M225.857411,102.403788 L222.600715,102.403788 L219.066747,98.8636587 L214.311891,98.8636587 L214.311891,96.6877837 L220.23248,96.6877837 C221.046902,96.6877837 221.731136,96.5095144 222.286673,96.152976 C222.915254,95.7350337 223.23029,95.1388221 223.23029,94.3643413 C223.23029,92.7911154 222.23102,92.0042548 220.23248,92.0042548 L213.016467,92.0042548 L213.016467,102.403788 L210.814694,102.403788 L210.814694,89.8100577 L219.88117,89.8100577 C221.509518,89.8100577 222.82283,90.1606538 223.8221,90.861351 C224.96895,91.6605913 225.542872,92.8341971 225.542872,94.3831587 C225.542872,95.4403942 225.209948,96.3495673 224.543602,97.1116683 C223.926947,97.8247452 223.088176,98.3229087 222.02729,98.6051683 L225.857411,102.403788" id="Fill-9" fill="#FFFFFF"></path>
                        <path d="M228.244032,89.8100577 L230.445805,89.8100577 L230.445805,102.403788 L228.244032,102.403788 L228.244032,89.8100577 Z" id="Fill-10" fill="#FFFFFF"></path>
                        <path d="M249.410571,89.8100577 L242.194559,101.371312 C241.688713,102.194817 241.232556,102.606322 240.825594,102.606322 C240.430556,102.606322 239.980363,102.194817 239.475014,101.371312 L232.407078,89.8100577 L235.237929,89.8100577 L240.881247,99.1582981 L246.57972,89.8100577 L249.410571,89.8100577" id="Fill-11" fill="#FFFFFF"></path>
                        <path d="M261.400322,102.403788 L250.48388,102.403788 L250.48388,89.8100577 L261.400322,89.8100577 L261.400322,92.0042548 L252.685653,92.0042548 L252.685653,100.209591 L261.400322,100.209591 L261.400322,102.403788 L261.400322,102.403788 Z M252.009369,94.9174712 L260.8264,94.9174712 L260.8264,97.1116683 L252.009369,97.1116683 L252.009369,94.9174712 Z" id="Fill-12" fill="#FFFFFF"></path>
                        <path d="M200.898515,89.8412548 C200.911932,89.8536346 200.937274,89.8224375 200.95069,89.8353125 C201.60362,90.4552933 202.133814,91.0985481 202.521895,91.8928365 L209.113798,91.8928365 L209.113798,89.8620529 C209.113798,89.8620529 204.067757,89.84175 200.898515,89.8412548" id="Fill-13" fill="#FFFFFF"></path>
                        <path d="M203.343274,94.9367837 C203.367622,95.2012163 203.380045,95.5310144 203.380045,95.839024 C203.380045,96.302524 203.352218,96.6570817 203.297062,97.1864423 L209.113798,97.1864423 L209.113798,94.9367837 L203.343274,94.9367837" id="Fill-14" fill="#FFFFFF"></path>
                        <path d="M202.403632,100.097678 C202.027477,100.75975 201.543494,101.48174 200.950193,102.085875 C200.861745,102.175505 200.771309,102.21512 200.680375,102.347832 L209.246471,102.347832 L209.246471,100.097678 L202.403632,100.097678" id="Fill-15" fill="#FFFFFF"></path>
                        <path d="M130.194315,91.8467837 L130.051704,92.494 L130.073071,92.5138077 C130.235061,92.2310529 130.456679,92.0255481 130.736932,91.8977885 C131.017682,91.7700288 131.320295,91.7051587 131.644772,91.7051587 C132.28031,91.7051587 132.771249,91.8908558 133.115602,92.2612596 C133.460452,92.6316635 133.632877,93.1337885 133.632877,93.7681298 C133.632877,94.1994423 133.575734,94.6203558 133.460452,95.0308702 C133.345171,95.442375 133.169765,95.8098077 132.933239,96.1331683 C132.69572,96.4565288 132.40056,96.7165048 132.045772,96.9111154 C131.68999,97.1067163 131.269114,97.2047644 130.78215,97.2047644 C130.634073,97.2047644 130.483512,97.1874327 130.33146,97.1537596 C130.178911,97.1195913 130.036797,97.0695769 129.905615,97.0017356 C129.773439,96.9348846 129.655176,96.8492163 129.549833,96.7442356 C129.445483,96.6402452 129.365482,96.5164471 129.31132,96.3758125 L129.281506,96.3758125 L128.733423,98.9027788 L127.303338,98.9027788 L128.80448,91.8467837 L130.194315,91.8467837 L130.194315,91.8467837 Z M130.468605,93.0040481 C130.272328,93.1496346 130.107854,93.3323606 129.975678,93.5551971 C129.844496,93.7780337 129.746109,94.0186971 129.682009,94.2781779 C129.617908,94.5376587 129.586107,94.7783221 129.586107,95.0011587 C129.586107,95.3443269 129.670083,95.6191587 129.839527,95.8246635 C130.007976,96.0301683 130.268353,96.1331683 130.62016,96.1331683 C130.897431,96.1331683 131.133957,96.0623558 131.330233,95.9207308 C131.526509,95.7786106 131.688996,95.6008365 131.817197,95.3854279 C131.945398,95.169524 132.040803,94.9328221 132.100928,94.6773029 C132.162047,94.4207933 132.192855,94.178149 132.192855,93.9493702 C132.192855,93.7948702 132.170991,93.6458173 132.126767,93.5041923 C132.082543,93.3635577 132.018442,93.24075 131.933472,93.1357692 C131.849496,93.0312837 131.743159,92.947101 131.614958,92.8832212 C131.485763,92.8193413 131.33719,92.787649 131.167746,92.787649 C130.897431,92.787649 130.663887,92.8594519 130.468605,93.0040481 L130.468605,93.0040481 Z" id="Fill-16" fill="#FFFFFF"></path>
                        <path d="M134.3991,93.701774 C134.537239,93.307601 134.736994,92.9619567 134.997371,92.6653365 C135.257747,92.3692115 135.57328,92.1354808 135.945957,91.963649 C136.318136,91.7908269 136.736528,91.7051587 137.203616,91.7051587 C137.562379,91.7051587 137.891825,91.7512115 138.192451,91.8418317 C138.493077,91.9329471 138.75246,92.0696202 138.969109,92.2513558 C139.185261,92.4330913 139.352717,92.6623654 139.47098,92.9391779 C139.589243,93.2145048 139.648374,93.5423221 139.648374,93.9196587 C139.648374,94.3782067 139.579305,94.8075385 139.439675,95.2076538 C139.301537,95.6092548 139.100291,95.957375 138.836933,96.2539952 C138.573078,96.5506154 138.25357,96.7833558 137.877912,96.9517212 C137.503248,97.1195913 137.075415,97.2047644 136.595408,97.2047644 C135.864962,97.2047644 135.282095,97.0180769 134.844822,96.6437115 C134.409038,96.268851 134.190898,95.7087885 134.190898,94.9600577 C134.190898,94.5158702 134.259968,94.0964423 134.3991,93.701774 L134.3991,93.701774 Z M135.697506,95.4052356 C135.740736,95.5473558 135.806824,95.6711538 135.895273,95.7786106 C135.983224,95.8865625 136.091549,95.9722308 136.21975,96.0375962 C136.34795,96.101476 136.497021,96.1331683 136.666465,96.1331683 C136.936283,96.1331683 137.168336,96.060375 137.361134,95.9157788 C137.553435,95.7706875 137.712444,95.5889519 137.837663,95.3695817 C137.962882,95.1507067 138.055306,94.9130144 138.116425,94.6574952 C138.177544,94.4009856 138.207358,94.1623029 138.207358,93.9394663 C138.207358,93.5893654 138.128351,93.3095817 137.968845,93.1011058 C137.81083,92.8911442 137.538031,92.787649 137.152435,92.787649 C136.889077,92.787649 136.660502,92.8594519 136.468201,93.0040481 C136.2759,93.1496346 136.118382,93.3293894 135.996144,93.5452933 C135.8749,93.7607019 135.783967,93.9944327 135.722848,94.2479712 C135.661729,94.5005192 135.631418,94.7382115 135.631418,94.9600577 C135.631418,95.1155481 135.653778,95.2636106 135.697506,95.4052356 L135.697506,95.4052356 Z" id="Fill-17" fill="#FFFFFF"></path>
                        <path d="M144.324223,97.0730433 L144.140866,93.4036683 L144.12099,93.4036683 L142.497611,97.0730433 L140.987029,97.0730433 L140.408634,91.8467837 L141.879465,91.8467837 L142.081704,95.5260625 L142.102077,95.5260625 L143.715021,91.8467837 L145.175913,91.8467837 L145.3384,95.496351 L145.358276,95.496351 L147.042278,91.8467837 L148.563295,91.8467837 L145.825364,97.0730433 L144.324223,97.0730433" id="Fill-18" fill="#FFFFFF"></path>
                        <path d="M149.851762,94.9001394 L149.851762,94.9808558 L149.851762,95.1120817 C149.851762,95.4151394 149.947167,95.6607548 150.136487,95.8499183 C150.324813,96.0385865 150.616494,96.1331683 151.008053,96.1331683 C151.150167,96.1331683 151.277871,96.1113798 151.38868,96.0673077 C151.499986,96.0232356 151.598373,95.9672788 151.682349,95.9004279 C151.76732,95.8325865 151.841855,95.7558317 151.905955,95.6676875 C151.970056,95.5800385 152.029187,95.496351 152.083349,95.4151394 L153.523869,95.4151394 C153.408587,95.7117596 153.27343,95.9717356 153.118397,96.1930865 C152.962866,96.4159231 152.776528,96.6026106 152.560375,96.7541394 C152.343726,96.9061635 152.092294,97.0190673 151.804587,97.092851 C151.516881,97.167625 151.184454,97.2047644 150.805814,97.2047644 C150.454007,97.2047644 150.134499,97.1577212 149.846793,97.0626442 C149.559584,96.9690529 149.315108,96.8249519 149.111378,96.6333125 C148.909139,96.4406827 148.751621,96.2039808 148.639818,95.9207308 C148.528512,95.637976 148.472362,95.3076827 148.472362,94.929851 C148.472362,94.512899 148.540437,94.1093173 148.675595,93.7220769 C148.810752,93.3343413 149.001066,92.9911731 149.248523,92.6905913 C149.495483,92.391 149.7976,92.1523173 150.156363,91.9735529 C150.514133,91.7947885 150.91712,91.7051587 151.363835,91.7051587 C151.728561,91.7051587 152.060989,91.7531923 152.362608,91.8467837 C152.663234,91.9418606 152.920629,92.084476 153.133304,92.2761154 C153.346475,92.4687452 153.511943,92.7074279 153.630206,92.9941442 C153.748468,93.2808606 153.8076,93.6131346 153.8076,93.9894808 C153.8076,94.2459904 153.78027,94.5188413 153.726605,94.8085288 L149.8617,94.8085288 C149.854743,94.8422019 149.851762,94.873399 149.851762,94.9001394 L149.851762,94.9001394 Z M152.382981,93.4992404 C152.358633,93.3685096 152.313415,93.2486731 152.24534,93.1407212 C152.178258,93.0332644 152.080368,92.947101 151.952167,92.8832212 C151.822476,92.8193413 151.654523,92.787649 151.44483,92.787649 C151.241597,92.787649 151.062216,92.8173606 150.906685,92.8782692 C150.751652,92.9391779 150.616494,93.0198942 150.501213,93.1209135 C150.385932,93.2219327 150.289533,93.3397885 150.212513,93.4744808 C150.134499,93.6091731 150.068411,93.7507981 150.014249,93.8988606 L152.417765,93.8988606 C152.417765,93.7636731 152.406833,93.6309615 152.382981,93.4992404 L152.382981,93.4992404 Z" id="Fill-19" fill="#FFFFFF"></path>
                        <path d="M156.536586,91.8467837 L156.323415,92.787649 L156.343291,92.8074567 C156.505778,92.4429952 156.751248,92.1691538 157.078706,91.9834567 C157.407656,91.7977596 157.763934,91.7051587 158.149033,91.7051587 C158.298104,91.7051587 158.446678,91.7160529 158.595748,91.7358606 L158.301086,93.1308173 C158.199717,93.1110096 158.098846,93.0897163 157.997478,93.0699087 C157.895116,93.050101 157.794245,93.0401971 157.692877,93.0401971 C157.415606,93.0401971 157.181068,93.0867452 156.987773,93.1818221 C156.795472,93.2754135 156.632985,93.4036683 156.500809,93.565101 C156.369627,93.7270288 156.264284,93.9107452 156.18627,94.11625 C156.108753,94.32225 156.045647,94.5356779 155.998938,94.7585144 L155.511974,97.0730433 L154.08189,97.0730433 L155.167124,91.8467837 L156.536586,91.8467837" id="Fill-20" fill="#FFFFFF"></path>
                        <path d="M159.437501,94.9001394 L159.437501,94.9808558 L159.437501,95.1120817 C159.437501,95.4151394 159.532409,95.6607548 159.721729,95.8499183 C159.910055,96.0385865 160.201736,96.1331683 160.593792,96.1331683 C160.735906,96.1331683 160.863113,96.1113798 160.974419,96.0673077 C161.085725,96.0232356 161.183615,95.9672788 161.268088,95.9004279 C161.353058,95.8325865 161.427097,95.7558317 161.491197,95.6676875 C161.555297,95.5800385 161.614429,95.496351 161.668591,95.4151394 L163.109607,95.4151394 C162.994326,95.7117596 162.859169,95.9717356 162.703638,96.1930865 C162.548108,96.4159231 162.36177,96.6026106 162.145617,96.7541394 C161.928968,96.9061635 161.677535,97.0190673 161.390326,97.092851 C161.10262,97.167625 160.769695,97.2047644 160.391056,97.2047644 C160.039746,97.2047644 159.719741,97.1577212 159.432532,97.0626442 C159.144825,96.9690529 158.900349,96.8249519 158.697116,96.6333125 C158.49438,96.4406827 158.337359,96.2039808 158.225059,95.9207308 C158.113753,95.637976 158.057603,95.3076827 158.057603,94.929851 C158.057603,94.512899 158.125679,94.1093173 158.261333,93.7220769 C158.396491,93.3343413 158.586804,92.9911731 158.834261,92.6905913 C159.080725,92.391 159.383338,92.1523173 159.742102,91.9735529 C160.099871,91.7947885 160.502362,91.7051587 160.949077,91.7051587 C161.313803,91.7051587 161.646727,91.7531923 161.948347,91.8467837 C162.248973,91.9418606 162.506368,92.084476 162.718545,92.2761154 C162.932213,92.4687452 163.097185,92.7074279 163.215447,92.9941442 C163.33371,93.2808606 163.392841,93.6131346 163.392841,93.9894808 C163.392841,94.2459904 163.366009,94.5188413 163.311846,94.8085288 L159.447439,94.8085288 C159.440482,94.8422019 159.437501,94.873399 159.437501,94.9001394 L159.437501,94.9001394 Z M161.968223,93.4992404 C161.944372,93.3685096 161.899154,93.2486731 161.831078,93.1407212 C161.763996,93.0332644 161.66561,92.947101 161.537409,92.8832212 C161.408214,92.8193413 161.239765,92.787649 161.030569,92.787649 C160.826839,92.787649 160.647457,92.8173606 160.492424,92.8782692 C160.336893,92.9391779 160.201736,93.0198942 160.086455,93.1209135 C159.971173,93.2219327 159.875271,93.3397885 159.798252,93.4744808 C159.719741,93.6091731 159.653653,93.7507981 159.599491,93.8988606 L162.003503,93.8988606 C162.003503,93.7636731 161.992074,93.6309615 161.968223,93.4992404 L161.968223,93.4992404 Z" id="Fill-21" fill="#FFFFFF"></path>
                        <path d="M167.450544,96.4060192 C167.288554,96.6892692 167.066936,96.8932885 166.786683,97.0180769 C166.505933,97.141875 166.20332,97.2047644 165.878843,97.2047644 C165.242311,97.2047644 164.750378,97.0210481 164.403043,96.6536154 C164.054218,96.2861827 163.879805,95.7860385 163.879805,95.1526875 C163.879805,94.721375 163.937943,94.2999663 164.05223,93.8889567 C164.167512,93.4784423 164.342918,93.1110096 164.580437,92.787649 C164.816466,92.4637933 165.11411,92.2023317 165.472874,92.0037596 C165.830643,91.8046923 166.253507,91.7051587 166.740471,91.7051587 C167.045072,91.7051587 167.337747,91.773 167.618,91.9076923 C167.89875,92.0423846 168.09602,92.2553173 168.211301,92.5450048 L168.231177,92.5450048 L168.810565,89.8561106 L170.25009,89.8561106 L168.718141,97.0730433 L167.328306,97.0730433 L167.470917,96.4258269 L167.450544,96.4060192 L167.450544,96.4060192 Z M166.187419,92.9990962 C165.988161,93.1407212 165.82468,93.3194856 165.695486,93.5353894 C165.567285,93.7507981 165.472874,93.9865096 165.411755,94.2430192 C165.350636,94.4985385 165.320822,94.7411827 165.320822,94.9699615 C165.320822,95.1259471 165.342685,95.2735144 165.38691,95.4151394 C165.429643,95.5572596 165.495234,95.6800673 165.579211,95.7835625 C165.663187,95.8885433 165.770518,95.9722308 165.898719,96.0375962 C166.026919,96.101476 166.176487,96.1331683 166.34444,96.1331683 C166.615252,96.1331683 166.848796,96.060375 167.045072,95.9157788 C167.241348,95.7706875 167.404829,95.5869712 167.537005,95.3646298 C167.669181,95.1427837 167.766574,94.9011298 167.831668,94.641649 C167.895768,94.3831587 167.92757,94.1415048 167.92757,93.9196587 C167.92757,93.5750048 167.8426,93.3006683 167.67415,93.0951635 C167.504706,92.8901538 167.24433,92.787649 166.892523,92.787649 C166.622208,92.787649 166.386677,92.8584615 166.187419,92.9990962 L166.187419,92.9990962 Z" id="Fill-22" fill="#FFFFFF"></path>
                        <path d="M175.636509,89.8561106 L175.098364,92.4028846 L175.118737,92.4028846 C175.341846,92.1602404 175.570421,91.9834567 175.803965,91.8720385 C176.037509,91.7611154 176.325713,91.7051587 176.670563,91.7051587 C177.008953,91.7051587 177.296659,91.7650769 177.533185,91.8829327 C177.76971,92.0007885 177.963999,92.1602404 178.116051,92.3622788 C178.2686,92.5648125 178.379906,92.800524 178.450963,93.0699087 C178.52202,93.3397885 178.5573,93.6260096 178.5573,93.9295625 C178.5573,94.3341346 178.500156,94.7332596 178.384875,95.1269375 C178.269594,95.5211106 178.097169,95.8717067 177.8676,96.1782308 C177.637534,96.4847548 177.353803,96.7333413 177.016406,96.9210192 C176.677519,97.1096875 176.28596,97.2047644 175.838748,97.2047644 C175.474022,97.2047644 175.140601,97.1364279 174.839975,97.0017356 C174.539349,96.8670433 174.324191,96.6184567 174.19599,96.2539952 L174.175617,96.2539952 L174.003192,97.0730433 L172.684911,97.0730433 L174.19599,89.8561106 L175.636509,89.8561106 L175.636509,89.8561106 Z M175.373151,93.009 C175.176875,93.1580529 175.015382,93.3427596 174.891156,93.565101 C174.765937,93.7879375 174.674507,94.0305817 174.616369,94.2930337 C174.559226,94.5554856 174.530405,94.8020913 174.530405,95.0308702 C174.530405,95.3542308 174.621338,95.6191587 174.804695,95.8246635 C174.987058,96.0301683 175.243957,96.1331683 175.57539,96.1331683 C175.852662,96.1331683 176.0872,96.0623558 176.280991,95.9207308 C176.473292,95.7786106 176.631307,95.5988558 176.756527,95.3794856 C176.881746,95.1606106 176.973176,94.9229183 177.031314,94.667399 C177.088457,94.4108894 177.117278,94.1722067 177.117278,93.9493702 C177.117278,93.6190769 177.039264,93.3427596 176.883734,93.1209135 C176.7287,92.8980769 176.464348,92.787649 176.092169,92.787649 C175.808934,92.787649 175.568434,92.8614327 175.373151,93.009 L175.373151,93.009 Z" id="Fill-23" fill="#FFFFFF"></path>
                        <path d="M180.789384,98.3516298 C180.661183,98.4967212 180.519069,98.609625 180.363539,98.6903413 C180.207512,98.7710577 180.030118,98.8270144 179.830363,98.8572212 C179.631105,98.8879231 179.395574,98.9027788 179.126253,98.9027788 C179.004015,98.9027788 178.878796,98.8958462 178.750595,98.8819808 C178.622394,98.8691058 178.494193,98.8592019 178.364999,98.8522692 L178.608481,97.6588558 C178.703389,97.6588558 178.799788,97.66975 178.897678,97.6900529 C178.996064,97.7098606 179.091967,97.7197644 179.186378,97.7197644 C179.355822,97.7197644 179.490979,97.6950048 179.59185,97.644 C179.694212,97.5939856 179.776698,97.5330769 179.840798,97.4622644 C179.904898,97.3914519 179.959061,97.3156875 180.002788,97.234476 C180.047012,97.1537596 180.093224,97.0829471 180.139933,97.0230288 L179.207248,91.8467837 L180.688016,91.8467837 L181.144172,95.5869712 L181.165042,95.5869712 L182.980722,91.8467837 L184.50174,91.8467837 L181.165042,97.8004808 C181.042804,98.0233173 180.917585,98.2070337 180.789384,98.3516298" id="Fill-24" fill="#FFFFFF"></path>
                    </g>
                </g>
            </g>
        </g>
    </g>
</svg>