<?xml version="1.0" encoding="UTF-8" standalone="no"?>
<svg width="110px" height="110px" viewBox="0 0 110 110" version="1.1" xmlns="http://www.w3.org/2000/svg" xmlns:xlink="http://www.w3.org/1999/xlink" xmlns:sketch="http://www.bohemiancoding.com/sketch/ns">
    <!-- Generator: Sketch 3.3.2 (12043) - http://www.bohemiancoding.com/sketch -->
    <title>Twitter</title>
    <desc>Created with Sketch.</desc>
    <defs></defs>
    <g id="Page-1" stroke="none" stroke-width="1" fill="none" fill-rule="evenodd" sketch:type="MSPage">
        <g id="home" sketch:type="MSArtboardGroup" transform="translate(-2530.000000, -8928.000000)" fill="#FFFFFF">
            <g id="FOOTER" sketch:type="MSLayerGroup" transform="translate(0.000000, 8825.000000)">
                <g id="Social" transform="translate(2530.000000, 103.000000)" sketch:type="MSShapeGroup">
                    <g id="Twitter">
                        <path d="M78.5851144,44.0650654 C78.5851144,43.5100327 78.575049,42.9600327 78.5500654,42.4150654 C80.9251307,40.645 82.9851144,38.4300817 84.6151634,35.895049 C82.4351144,36.8751634 80.095098,37.5301307 77.6350163,37.804951 C80.1450654,36.2599183 82.0700654,33.789951 82.9800817,30.8249837 C80.63,32.249951 78.0300817,33.2699673 75.2649837,33.8000163 C73.0500654,31.279902 69.8900817,29.6750163 66.3948856,29.6149837 C59.6848856,29.5049837 54.2449183,35.1750163 54.2449183,42.279902 C54.2449183,43.2898529 54.3498856,44.2699673 54.5598203,45.2148529 C44.4549183,44.5649183 35.4999837,39.3048693 29.5098366,31.3749837 C28.4648366,33.275 27.8648693,35.494951 27.8648693,37.875049 C27.8648693,42.3751634 30.0098693,46.3750654 33.2697876,48.7350327 C31.2748693,48.6451634 29.4048693,48.0401634 27.7649346,47.0499837 L27.7649346,47.2149837 C27.7649346,53.5051144 31.955,58.775049 37.5148529,60.005 C36.4948366,60.2949183 35.4198203,60.445 34.3147876,60.4401471 C33.5298693,60.4351144 32.7697549,60.350098 32.0297712,60.189951 C33.5748039,65.3450327 38.0648529,69.1100163 43.3797222,69.2349346 C39.2196732,72.6848366 33.9797549,74.7448203 28.2897712,74.729902 C27.3096569,74.729902 26.3397876,74.6650163 25.3896895,74.544951 C30.7698039,78.2349837 37.1546569,80.3848366 44.0195915,80.3848366 C66.3648693,80.390049 78.5851144,60.94 78.5851144,44.0650654" id="Fill-1"></path>
                        <path d="M110,55 C110,24.624902 85.3749183,0 55,0 C24.624902,0 0,24.624902 0,55 C0,85.3749183 24.624902,110 55,110 C85.3749183,110 110,85.3749183 110,55 L110,55 Z M4.99996732,55 C4.99996732,27.3849673 27.3849673,4.99996732 55,4.99996732 C82.6150327,4.99996732 105.000033,27.3849673 105.000033,55 C105.000033,82.6150327 82.6150327,105.000033 55,105.000033 C27.3849673,105.000033 4.99996732,82.6150327 4.99996732,55 L4.99996732,55 Z" id="Fill-2"></path>
                    </g>
                </g>
            </g>
        </g>
    </g>
</svg>