<?xml version="1.0" encoding="UTF-8" standalone="no"?>
<svg width="126px" height="79px" viewBox="0 0 126 79" version="1.1" xmlns="http://www.w3.org/2000/svg" xmlns:xlink="http://www.w3.org/1999/xlink" xmlns:sketch="http://www.bohemiancoding.com/sketch/ns">
    <!-- Generator: Sketch 3.3.2 (12043) - http://www.bohemiancoding.com/sketch -->
    <title>Visa</title>
    <desc>Created with Sketch.</desc>
    <defs></defs>
    <g id="Page-1" stroke="none" stroke-width="1" fill="none" fill-rule="evenodd" sketch:type="MSPage">
        <g id="cart@2x" sketch:type="MSArtboardGroup" transform="translate(-1650.000000, -1463.000000)">
            <g id="ACCEPTED-PAYMENT-MET-+-Cards" sketch:type="MSLayerGroup" transform="translate(1650.000000, 1352.000000)">
                <g id="Cards" transform="translate(0.000000, 111.000000)" sketch:type="MSShapeGroup">
                    <g id="Visa">
                        <path d="M125.738,74.213 C125.738,76.522 123.867,78.393 121.558,78.393 L4.49,78.393 C2.181,78.393 0.309,76.522 0.309,74.213 L0.309,4.182 C0.309,1.872 2.181,0 4.49,0 L121.558,0 C123.867,0 125.738,1.872 125.738,4.182 L125.738,74.213" id="Fill-1" fill="#FFFFFF"></path>
                        <path d="M58.03,51.613 L51.903,51.613 L55.732,28.079 L61.861,28.079 L58.03,51.613" id="Fill-2" fill="#0066B2"></path>
                        <path d="M46.748,28.079 L40.907,44.266 L40.215,40.78 L40.215,40.781 L38.153,30.198 C38.153,30.198 37.905,28.079 35.247,28.079 L25.59,28.079 L25.477,28.477 C25.477,28.477 28.431,29.091 31.888,31.167 L37.21,51.613 L43.594,51.613 L53.343,28.079 L46.748,28.079" id="Fill-3" fill="#0066B2"></path>
                        <path d="M94.943,51.613 L100.569,51.613 L95.664,28.079 L90.739,28.079 C88.464,28.079 87.909,29.832 87.909,29.832 L78.772,51.613 L85.158,51.613 L86.435,48.118 L94.225,48.118 L94.943,51.613 L94.943,51.613 Z M88.201,43.289 L91.42,34.48 L93.232,43.289 L88.201,43.289 L88.201,43.289 Z" id="Fill-4" fill="#0066B2"></path>
                        <path d="M79.25,33.738 L80.125,28.684 C80.125,28.684 77.426,27.658 74.614,27.658 C71.573,27.658 64.352,28.987 64.352,35.449 C64.352,41.53 72.828,41.605 72.828,44.797 C72.828,47.99 65.226,47.42 62.716,45.406 L61.806,50.688 C61.806,50.688 64.541,52.019 68.723,52.019 C72.903,52.019 79.213,49.853 79.213,43.962 C79.213,37.843 70.661,37.272 70.661,34.612 C70.661,31.951 76.629,32.293 79.25,33.738" id="Fill-5" fill="#0066B2"></path>
                        <path d="M40.215,40.781 L38.153,30.198 C38.153,30.198 37.905,28.079 35.247,28.079 L25.59,28.079 L25.477,28.477 C25.477,28.477 30.12,29.439 34.572,33.042 C38.829,36.488 40.215,40.781 40.215,40.781" id="Fill-6" fill="#F9A533"></path>
                    </g>
                </g>
            </g>
        </g>
    </g>
</svg>